<svg width="783" height="330" viewBox="0 0 783 330" fill="none" xmlns="http://www.w3.org/2000/svg">
<path d="M475.426 197.637C475.783 238.511 466.871 269.88 448.691 291.506C430.512 313.131 405.44 324.063 373.834 324.419C341.99 324.776 316.681 314.201 297.907 292.931C279.133 271.662 269.509 240.531 269.152 199.657L268.439 127.651C268.083 86.8954 276.995 55.6453 295.174 33.7822C313.354 12.0379 338.425 0.987557 370.269 0.631093C401.995 0.274629 427.185 10.8497 445.958 32.3564C464.732 53.7442 474.357 84.8754 474.713 125.631L475.426 197.637ZM422.194 118.145C421.957 92.3611 417.441 73.3497 408.649 61.1111C399.856 48.8725 387.261 42.6938 370.626 42.9315C354.11 43.0503 341.515 49.3478 333.078 61.8241C324.642 74.3003 320.483 93.4305 320.721 119.215L321.553 206.667C321.79 232.57 326.305 251.701 335.217 264.058C344.01 276.415 356.724 282.475 373.359 282.356C389.875 282.238 402.351 275.94 410.787 263.464C419.224 250.988 423.264 231.739 423.026 205.717L422.194 118.145Z" fill="#F07654"/>
<g opacity="0.4">
<path opacity="0.4" d="M475.426 197.637C475.783 238.511 466.871 269.88 448.691 291.506C430.512 313.131 405.44 324.063 373.834 324.419C341.99 324.776 316.681 314.201 297.907 292.931C279.133 271.662 269.509 240.531 269.152 199.657L268.439 127.651C268.083 86.8954 276.995 55.6453 295.174 33.7822C313.354 12.0379 338.425 0.987557 370.269 0.631093C401.995 0.274629 427.185 10.8497 445.958 32.3564C464.732 53.7442 474.357 84.8754 474.713 125.631L475.426 197.637ZM422.194 118.145C421.957 92.3611 417.441 73.3497 408.649 61.1111C399.856 48.8725 387.261 42.6938 370.626 42.9315C354.11 43.0503 341.515 49.3478 333.078 61.8241C324.642 74.3003 320.483 93.4305 320.721 119.215L321.553 206.667C321.79 232.57 326.305 251.701 335.217 264.058C344.01 276.415 356.724 282.475 373.359 282.356C389.875 282.238 402.351 275.94 410.787 263.464C419.224 250.988 423.264 231.739 423.026 205.717L422.194 118.145Z" fill="black"/>
</g>
<path d="M505.724 197.28C506.08 238.155 497.168 269.524 478.989 291.149C460.809 312.775 435.738 323.706 404.131 324.063C372.287 324.419 346.978 313.844 328.205 292.575C309.431 271.306 299.806 240.175 299.45 199.3L298.737 127.295C298.38 86.5389 307.292 55.2889 325.472 33.4258C343.651 11.6815 368.723 0.631112 400.567 0.274648C432.292 -0.0818159 457.482 10.4933 476.256 31.9999C495.03 53.3878 504.654 84.519 505.011 125.275L505.724 197.28ZM452.373 117.789C452.135 92.0047 447.62 72.9933 438.827 60.7547C430.034 48.5161 417.439 42.3374 400.804 42.575C384.288 42.6938 371.693 48.9914 363.257 61.4676C354.821 73.9439 350.662 93.0741 350.899 118.858L351.731 206.311C351.969 232.214 356.484 251.344 365.396 263.701C374.188 276.059 386.902 282.119 403.537 282C420.053 281.881 432.53 275.584 440.966 263.107C449.402 250.631 453.442 231.382 453.205 205.36L452.373 117.789Z" fill="#F07654"/>
<path d="M283.17 137.834C291.893 134.556 298.908 131.749 298.839 131.565C298.77 131.38 291.642 133.889 282.919 137.167C274.196 140.445 267.181 143.252 267.25 143.436C267.319 143.621 274.447 141.112 283.17 137.834Z" fill="#F07654"/>
<path d="M284.978 166.335C293.701 163.056 300.717 160.25 300.647 160.065C300.578 159.881 293.451 162.389 284.728 165.667C276.005 168.946 268.989 171.752 269.059 171.937C269.128 172.121 276.255 169.613 284.978 166.335Z" fill="#F07654"/>
<path d="M286.638 194.763C295.361 191.485 302.376 188.678 302.307 188.494C302.237 188.309 295.11 190.818 286.387 194.096C277.664 197.374 270.648 200.181 270.718 200.365C270.787 200.55 277.915 198.041 286.638 194.763Z" fill="#F07654"/>
<path d="M288.408 223.151C297.131 219.873 304.146 217.066 304.077 216.881C304.008 216.697 296.88 219.205 288.157 222.484C279.434 225.762 272.419 228.569 272.488 228.753C272.557 228.937 279.685 226.429 288.408 223.151Z" fill="#F07654"/>
<path d="M305.868 245.403C305.868 245.403 305.511 245.641 304.798 245.997C304.085 246.354 303.016 246.71 301.709 247.304C299.095 248.374 295.53 249.681 291.609 251.225C287.688 252.77 284.004 254.077 281.39 254.909C280.083 255.384 279.014 255.741 278.301 255.978C277.588 256.216 277.113 256.335 277.113 256.335C277.113 256.335 277.469 256.097 278.182 255.74C278.895 255.384 279.965 255.028 281.272 254.433C283.886 253.364 287.45 252.057 291.371 250.512C295.292 248.968 298.976 247.661 301.59 246.829C302.897 246.354 303.966 245.997 304.679 245.759C305.392 245.403 305.749 245.284 305.868 245.403Z" fill="#F07654"/>
<path d="M313.946 271.425C313.946 271.544 312.639 272.138 310.381 272.97C308.124 273.92 305.034 275.108 301.588 276.415C298.143 277.722 294.934 278.911 292.677 279.624C290.419 280.455 288.993 280.931 288.875 280.812C288.875 280.693 290.182 280.099 292.439 279.267C294.697 278.317 297.786 277.128 301.232 275.821C304.678 274.514 307.886 273.326 310.143 272.613C312.52 271.781 313.946 271.306 313.946 271.425Z" fill="#F07654"/>
<path d="M331.295 295.189C331.295 295.308 330.107 295.783 328.087 296.615C326.067 297.447 323.334 298.516 320.245 299.704C317.155 300.892 314.303 301.843 312.284 302.556C310.264 303.269 308.957 303.625 308.957 303.625C308.957 303.507 310.145 303.031 312.165 302.199C314.185 301.368 316.918 300.298 320.007 299.11C323.096 297.922 325.948 296.971 327.968 296.258C329.988 295.545 331.295 295.189 331.295 295.189Z" fill="#F07654"/>
<path d="M360.166 310.873C360.166 310.992 358.978 311.468 356.958 312.299C354.938 313.131 352.205 314.201 349.116 315.389C346.026 316.577 343.175 317.527 341.155 318.24C339.135 318.953 337.828 319.31 337.828 319.31C337.828 319.31 339.016 318.716 341.036 317.884C343.056 317.052 345.789 315.983 348.878 314.795C351.967 313.606 354.819 312.656 356.839 311.943C358.859 311.23 360.166 310.755 360.166 310.873Z" fill="#F07654"/>
<path d="M427.203 259.651C438.396 254.62 447.404 250.395 447.323 250.216C447.242 250.036 438.103 253.969 426.911 259.001C415.718 264.032 406.709 268.256 406.79 268.436C406.871 268.615 416.01 264.682 427.203 259.651Z" fill="#F07654"/>
<path d="M436.614 233.762C445.891 229.592 453.347 226.065 453.266 225.886C453.185 225.706 445.599 228.941 436.321 233.112C427.044 237.282 419.588 240.808 419.669 240.988C419.75 241.167 427.336 237.932 436.614 233.762Z" fill="#F07654"/>
<path d="M439.313 206.318C448.59 202.147 456.046 198.621 455.965 198.442C455.884 198.262 448.298 201.497 439.021 205.668C429.743 209.838 422.288 213.364 422.368 213.544C422.449 213.723 430.035 210.488 439.313 206.318Z" fill="#F07654"/>
<path d="M442.059 178.979C451.337 174.809 458.792 171.283 458.711 171.103C458.631 170.923 451.044 174.159 441.767 178.329C432.489 182.499 425.034 186.026 425.114 186.205C425.195 186.385 432.781 183.15 442.059 178.979Z" fill="#F07654"/>
<path d="M444.809 151.644C454.086 147.473 461.542 143.947 461.461 143.768C461.381 143.588 453.794 146.823 444.517 150.993C435.239 155.164 427.784 158.69 427.864 158.87C427.945 159.049 435.531 155.814 444.809 151.644Z" fill="#F07654"/>
<path d="M439.351 127.292C448.629 123.121 456.084 119.595 456.003 119.415C455.923 119.236 448.336 122.471 439.059 126.641C429.781 130.812 422.326 134.338 422.407 134.518C422.487 134.697 430.074 131.462 439.351 127.292Z" fill="#F07654"/>
<path d="M439.344 101.032C448.622 96.8616 456.077 93.3353 455.996 93.1558C455.916 92.9762 448.329 96.2114 439.052 100.382C429.774 104.552 422.319 108.078 422.4 108.258C422.48 108.437 430.067 105.202 439.344 101.032Z" fill="#F07654"/>
<path d="M436.606 76.3211C445.883 72.1508 453.339 68.6244 453.258 68.4449C453.177 68.2653 445.591 71.5005 436.314 75.6708C427.036 79.8412 419.581 83.3675 419.661 83.5471C419.742 83.7266 427.328 80.4915 436.606 76.3211Z" fill="#F07654"/>
<path d="M419.718 56.111C425.344 53.5819 429.84 51.3861 429.759 51.2065C429.678 51.027 425.052 52.9317 419.425 55.4608C413.799 57.9899 409.303 60.1857 409.384 60.3653C409.465 60.5449 414.091 58.6402 419.718 56.111Z" fill="#F07654"/>
<path d="M407.163 45.663C412.789 43.1339 417.285 40.9381 417.204 40.7585C417.123 40.579 412.497 42.4837 406.871 45.0128C401.244 47.5419 396.749 49.7377 396.829 49.9173C396.91 50.0969 401.536 48.1922 407.163 45.663Z" fill="#F07654"/>
<path d="M284.478 103.39C293.201 100.112 300.217 97.3052 300.147 97.1209C300.078 96.9366 292.951 99.4447 284.228 102.723C275.505 106.001 268.489 108.808 268.559 108.992C268.628 109.177 275.755 106.669 284.478 103.39Z" fill="#F07654"/>
<path d="M291.973 68.431C301.433 64.8757 309.046 61.8442 308.977 61.6599C308.908 61.4756 301.183 64.2084 291.722 67.7636C282.262 71.3189 274.649 74.3504 274.719 74.5347C274.788 74.719 282.513 71.9863 291.973 68.431Z" fill="#F07654"/>
<path d="M310.154 35.077C322.133 30.5752 331.787 26.7764 331.718 26.5921C331.649 26.4078 321.882 29.9078 309.903 34.4096C297.924 38.9115 288.27 42.7103 288.339 42.8946C288.408 43.0789 298.175 39.5788 310.154 35.077Z" fill="#F07654"/>
<path d="M500.497 250.631C500.497 250.631 500.378 250.631 500.022 250.512C499.665 250.393 499.19 250.156 498.596 249.918C498.002 249.68 497.17 249.562 496.22 249.205C495.269 249.086 494.081 248.849 492.893 248.849C487.783 248.492 480.179 250.393 472.812 255.859C469.128 258.473 465.564 262.157 462.237 266.315C458.791 270.474 455.464 275.227 451.662 279.98C447.859 284.733 443.463 289.486 437.997 293.288C432.531 296.971 425.996 299.704 419.105 301.011C412.213 302.318 405.084 301.962 398.667 300.298C392.251 298.754 386.31 296.258 380.725 293.644C375.259 291.03 370.031 288.535 365.16 286.277C360.288 284.139 355.416 282.475 351.02 281.406C346.505 280.336 342.465 279.98 338.781 279.98C335.098 279.98 332.008 280.574 329.513 281.287C327.018 282 325.236 282.832 324.047 283.426C323.453 283.782 322.978 284.02 322.74 284.139C322.384 284.257 322.265 284.376 322.265 284.376C322.265 284.376 322.384 284.257 322.74 284.139C323.097 283.901 323.453 283.663 324.047 283.307C325.236 282.594 327.018 281.881 329.513 281.049C332.008 280.336 335.098 279.742 338.781 279.623C342.465 279.505 346.624 279.98 351.139 280.93C355.654 282 360.407 283.545 365.397 285.683C370.388 287.822 375.497 290.436 381.082 292.931C386.547 295.427 392.489 297.922 398.905 299.467C405.321 301.011 412.213 301.368 419.105 300.18C425.996 298.991 432.413 296.258 437.759 292.575C443.225 288.892 447.503 284.139 451.305 279.505C455.107 274.752 458.434 270.118 461.88 265.84C465.326 261.681 468.891 257.998 472.574 255.265C480.06 249.799 487.783 247.898 492.893 248.373C494.2 248.373 495.269 248.73 496.338 248.849C497.289 249.086 498.121 249.324 498.715 249.562C499.309 249.799 499.784 250.037 500.141 250.156C500.378 250.512 500.497 250.631 500.497 250.631Z" fill="white"/>
<path d="M507.982 171.258C507.982 171.377 507.15 171.377 505.725 171.971C504.299 172.447 502.279 173.397 500.021 175.061C497.764 176.605 495.268 178.863 492.417 181.121C489.565 183.378 486 185.517 482.198 187.418C474.475 191.102 466.751 192.527 461.167 192.884C459.741 193.003 458.553 193.003 457.364 193.003C456.295 193.003 455.344 192.884 454.513 192.884C453.8 192.765 453.206 192.765 452.73 192.646C452.374 192.646 452.136 192.527 452.136 192.527C452.136 192.527 452.374 192.527 452.73 192.527C453.206 192.527 453.8 192.527 454.513 192.646C455.344 192.646 456.295 192.646 457.364 192.646C458.434 192.646 459.741 192.646 461.048 192.409C466.514 192.052 474.237 190.507 481.842 186.824C485.644 185.042 489.09 182.903 491.941 180.645C494.793 178.388 497.288 176.249 499.665 174.704C501.922 173.16 504.061 172.209 505.606 171.734C506.319 171.496 506.913 171.377 507.388 171.377C507.863 171.258 507.982 171.258 507.982 171.258Z" fill="white"/>
<path d="M352.801 198.825C352.801 198.825 352.564 198.825 352.207 198.706C351.732 198.588 351.138 198.469 350.306 198.35C348.761 197.875 346.504 197.043 343.89 195.617C341.394 194.191 338.543 192.052 335.572 189.557C332.602 187.062 329.394 184.329 325.71 181.715C322.027 179.22 318.224 177.437 314.422 176.606C310.739 175.655 307.174 175.536 304.322 175.655C301.471 175.774 299.094 176.249 297.549 176.724C296.005 177.081 295.173 177.437 295.054 177.318C295.054 177.318 295.292 177.2 295.648 177.081C296.005 176.962 296.599 176.724 297.431 176.487C298.975 176.011 301.352 175.417 304.322 175.299C307.293 175.061 310.857 175.18 314.541 176.13C318.343 176.962 322.383 178.744 326.067 181.358C329.75 183.972 332.958 186.705 335.929 189.201C338.899 191.696 341.632 193.835 344.127 195.379C346.623 196.924 348.761 197.756 350.306 198.35C351.97 198.588 352.801 198.825 352.801 198.825Z" fill="white"/>
<path d="M353.038 86.5389C353.038 86.5389 352.325 86.7766 351.018 87.2519C350.424 87.4895 349.592 87.7271 348.642 87.9648C347.691 88.2024 346.622 88.5589 345.434 88.6777C344.245 88.9154 342.938 89.153 341.513 89.3906C340.087 89.6283 338.542 89.7471 336.997 89.8659C333.789 90.1036 330.224 90.1036 326.541 89.7471C322.858 89.3907 319.412 88.6777 316.204 87.9648C314.659 87.4895 313.233 87.133 311.807 86.6577C310.5 86.1825 309.193 85.7072 308.124 85.2319C306.936 84.7566 305.985 84.2813 305.153 83.9248C304.321 83.5684 303.49 83.0931 302.896 82.7366C301.707 82.0237 301.113 81.6672 301.113 81.6672C301.113 81.6672 301.826 81.9049 303.014 82.499C303.609 82.8554 304.321 83.2119 305.272 83.5684C306.104 83.9249 307.173 84.4001 308.243 84.8754C309.312 85.3507 310.619 85.826 311.926 86.1825C313.233 86.6578 314.778 87.0142 316.322 87.4895C319.412 88.2024 322.858 88.9154 326.541 89.2718C330.224 89.6283 333.67 89.6283 336.878 89.3906C338.423 89.2718 339.968 89.153 341.394 88.9154C342.82 88.7965 344.127 88.5589 345.315 88.3213C346.503 88.0836 347.572 87.846 348.523 87.6083C349.474 87.3707 350.305 87.2519 350.899 87.0142C352.325 86.6577 353.038 86.4201 353.038 86.5389Z" fill="white"/>
<path d="M501.325 86.1824C501.325 86.1824 501.088 86.0636 500.85 85.9447C500.493 85.7071 500.018 85.4694 499.424 85.113C498.83 84.7565 498.117 84.2812 497.166 83.9248C496.335 83.4495 495.265 82.9742 494.196 82.4989C493.602 82.2613 493.008 82.0236 492.414 81.786C491.819 81.5484 491.106 81.3107 490.394 81.0731C489.087 80.5978 487.542 80.2413 485.997 79.766C482.789 79.0531 479.224 78.5778 475.541 78.5778C471.739 78.5778 468.174 78.9343 465.085 79.6472C463.54 80.0037 461.995 80.3601 460.569 80.8354C459.856 81.0731 459.262 81.1919 458.549 81.4295C457.955 81.6672 457.361 81.9048 456.767 82.1425C455.579 82.4989 454.628 83.093 453.678 83.4495C452.727 83.806 452.014 84.2812 451.42 84.6377C450.826 84.9942 450.351 85.2318 449.994 85.3506C449.638 85.4695 449.519 85.5883 449.519 85.5883C449.519 85.5883 449.638 85.4695 449.994 85.2318C450.351 84.9942 450.826 84.7565 451.301 84.4001C451.895 84.0436 452.608 83.5683 453.44 83.093C454.272 82.6177 455.341 82.0236 456.411 81.6672C457.005 81.4295 457.599 81.1919 458.193 80.9542C458.787 80.7166 459.5 80.479 460.213 80.2413C461.639 79.766 463.065 79.4096 464.728 79.0531C467.936 78.3402 471.62 77.9837 475.422 77.9837C479.224 77.9837 482.789 78.5778 485.997 79.2907C487.542 79.766 489.087 80.1225 490.512 80.5978C491.225 80.8354 491.819 81.0731 492.532 81.3107C493.126 81.5483 493.721 81.786 494.315 82.1425C495.503 82.6177 496.453 83.2118 497.285 83.6871C498.117 84.1624 498.83 84.6377 499.424 84.9942C499.899 85.3506 500.375 85.5883 500.731 85.9447C501.206 86.0636 501.325 86.1824 501.325 86.1824Z" fill="white"/>
<path d="M428.609 5.50281C428.609 5.50281 428.371 5.74045 427.777 5.97809C427.183 6.33456 426.351 6.80984 425.282 7.28513C423.143 8.47334 419.935 10.1368 415.895 12.1568C407.934 16.0779 396.765 21.4249 383.457 24.8707C376.803 26.5342 370.386 27.3659 364.445 27.4847C358.504 27.6036 353.157 27.1283 348.88 26.1777C344.483 25.2271 341.037 24.0389 338.78 23.0883C337.592 22.6131 336.76 22.1378 336.166 21.9001C335.572 21.6625 335.215 21.4249 335.334 21.4249C335.334 21.4249 335.691 21.5437 336.285 21.7813C336.879 22.019 337.71 22.4942 338.899 22.8507C341.156 23.8013 344.602 24.8707 348.998 25.7024C353.395 26.5342 358.623 27.0095 364.445 26.8906C370.267 26.7718 376.684 25.8212 383.338 24.2766C396.527 20.9496 407.696 15.6026 415.657 11.8003C419.578 9.89919 422.786 8.2357 425.163 7.16631C426.232 6.69102 427.064 6.21573 427.777 5.85927C428.371 5.62162 428.609 5.50281 428.609 5.50281Z" fill="white"/>
<path d="M190.135 212.49L229.821 214.272L228.039 256.335L188.353 254.552L185.263 324.538L132.982 322.28L136.071 252.295L1.09045 246.354L1.20928 214.272L144.983 7.76044L198.928 10.1369L190.135 212.49ZM53.4907 206.548L137.854 210.232L143.438 82.6179L142.131 82.1426L137.378 91.2918L53.4907 206.548Z" fill="#F07654"/>
<g opacity="0.4">
<path opacity="0.4" d="M190.135 212.49L229.821 214.272L228.039 256.335L188.353 254.552L185.263 324.538L132.982 322.28L136.071 252.295L1.09045 246.354L1.20928 214.272L144.983 7.76044L198.928 10.1369L190.135 212.49ZM53.4907 206.548L137.854 210.232L143.438 82.6179L142.131 82.1426L137.378 91.2918L53.4907 206.548Z" fill="black"/>
</g>
<path d="M223.284 214.034L262.97 215.816L261.188 257.879L221.501 256.097L218.412 326.083L166.131 323.825L169.22 253.839L34.2389 247.898L34.3577 215.816L178.132 9.30511L232.076 11.6815L223.284 214.034ZM86.6391 207.974L171.002 211.658L176.587 84.0437L175.28 83.5684L170.527 92.7177L86.6391 207.974Z" fill="#F07654"/>
<path d="M35.0721 221.995C35.0721 221.995 34.5968 222.233 33.765 222.708C32.9333 223.183 31.7451 223.778 30.2004 224.491C27.111 225.916 22.8335 227.818 18.0806 229.837C13.3278 231.857 8.93138 233.521 5.84203 234.709C4.29735 235.303 2.99032 235.779 2.03975 236.135C1.08918 236.491 0.613892 236.61 0.613892 236.61C0.613892 236.61 1.08918 236.373 1.92093 236.016C2.8715 235.541 4.17853 235.066 5.60439 234.472C8.81256 233.164 13.0901 231.382 17.843 229.362C22.477 227.342 26.7546 225.56 29.9628 224.134C31.3886 223.54 32.6956 222.946 33.6462 222.589C34.5968 222.114 35.0721 221.876 35.0721 221.995Z" fill="#F07654"/>
<path d="M54.4401 186.349C54.4401 186.349 53.8459 186.705 52.6577 187.299C51.4695 187.894 49.806 188.725 47.6672 189.676C43.3897 191.577 37.5674 194.191 31.0323 196.924C24.4971 199.657 18.556 202.152 14.1596 203.816C12.0208 204.647 10.2385 205.36 9.05031 205.717C7.8621 206.192 7.14917 206.43 7.14917 206.311C7.14917 206.311 7.74328 205.954 8.93149 205.479C10.2385 204.885 11.902 204.172 14.0408 203.34C18.4372 201.558 24.2594 199.063 30.7946 196.33C37.3298 193.597 43.152 191.102 47.5484 189.201C49.5684 188.369 51.3507 187.537 52.6577 187.062C53.7271 186.587 54.4401 186.349 54.4401 186.349Z" fill="#F07654"/>
<path d="M78.0857 154.624C78.0857 154.624 77.4916 154.98 76.1845 155.574C74.9963 156.168 73.214 157 70.9564 157.951C66.56 159.852 60.3813 162.466 53.6085 165.199C46.8357 167.932 40.5381 170.427 36.0229 172.09C33.7653 172.922 31.983 173.635 30.676 173.991C29.3689 174.467 28.656 174.704 28.656 174.586C28.656 174.586 29.3689 174.229 30.5571 173.754C31.8642 173.16 33.6465 172.447 35.9041 171.615C40.4193 169.833 46.598 167.337 53.3708 164.605C60.1437 161.872 66.3224 159.376 70.8376 157.475C72.9764 156.644 74.7587 155.812 76.1845 155.336C77.3728 154.861 78.0857 154.624 78.0857 154.624Z" fill="#F07654"/>
<path d="M172.666 191.221C172.666 191.221 172.191 191.458 171.359 191.934C170.527 192.29 169.22 192.884 167.794 193.597C164.705 195.023 160.427 196.805 155.674 198.706C150.922 200.608 146.525 202.271 143.436 203.459C141.891 204.053 140.584 204.529 139.633 204.766C138.683 205.004 138.208 205.242 138.208 205.123C138.208 205.123 138.683 204.885 139.515 204.529C140.465 204.172 141.772 203.578 143.198 202.984C146.406 201.677 150.684 200.013 155.437 198.112C160.071 196.211 164.348 194.429 167.556 193.122C168.982 192.528 170.289 192.052 171.24 191.577C172.072 191.458 172.547 191.221 172.666 191.221Z" fill="#F07654"/>
<path d="M168.746 256.572C168.746 256.572 168.271 256.81 167.439 257.285C166.608 257.642 165.419 258.236 163.994 258.949C161.023 260.375 156.864 262.157 152.23 264.058C147.596 265.959 143.437 267.623 140.348 268.811C138.803 269.405 137.615 269.88 136.665 270.118C135.833 270.356 135.358 270.593 135.239 270.474C135.239 270.474 135.714 270.237 136.546 269.88C137.496 269.524 138.685 268.93 140.11 268.336C143.319 267.029 147.359 265.365 151.993 263.464C156.508 261.563 160.667 259.78 163.756 258.473C165.182 257.879 166.37 257.404 167.321 256.929C168.271 256.691 168.746 256.572 168.746 256.572Z" fill="#F07654"/>
<path d="M168.27 279.386C168.27 279.386 167.795 279.624 166.963 280.099C166.132 280.455 164.943 281.049 163.518 281.762C160.547 283.188 156.388 284.97 151.754 286.872C147.12 288.773 142.961 290.436 139.872 291.624C138.327 292.219 137.139 292.694 136.189 292.931C135.357 293.169 134.882 293.407 134.763 293.288C134.763 293.288 135.238 293.05 136.07 292.694C137.02 292.337 138.209 291.743 139.634 291.149C142.843 289.842 146.883 288.179 151.517 286.278C156.032 284.376 160.191 282.594 163.28 281.287C164.706 280.693 165.894 280.218 166.845 279.742C167.676 279.624 168.152 279.386 168.27 279.386Z" fill="#F07654"/>
<path d="M167.676 302.318C167.676 302.318 167.201 302.556 166.369 303.031C165.538 303.388 164.349 303.982 162.923 304.695C159.953 306.121 155.794 307.903 151.16 309.804C146.526 311.705 142.367 313.369 139.278 314.557C137.733 315.151 136.545 315.626 135.595 315.864C134.763 316.102 134.288 316.339 134.169 316.221C134.169 316.221 134.644 315.983 135.476 315.626C136.426 315.27 137.615 314.676 139.04 314.082C142.249 312.775 146.288 311.111 150.922 309.21C155.438 307.309 159.596 305.527 162.686 304.22C164.112 303.625 165.3 303.15 166.25 302.675C167.201 302.437 167.676 302.318 167.676 302.318Z" fill="#F07654"/>
<path d="M173.26 167.1C173.26 167.1 172.784 167.337 171.953 167.813C171.121 168.169 169.814 168.763 168.388 169.476C165.299 170.902 161.021 172.684 156.268 174.586C151.515 176.487 147.119 178.15 144.03 179.338C142.485 179.932 141.178 180.408 140.227 180.645C139.277 180.883 138.801 181.121 138.801 181.002C138.801 181.002 139.277 180.764 140.108 180.408C141.059 180.051 142.366 179.457 143.792 178.863C147 177.556 151.278 175.893 156.03 173.991C160.664 172.09 164.942 170.308 168.15 169.001C169.576 168.407 170.883 167.932 171.834 167.456C172.665 167.219 173.26 167.1 173.26 167.1Z" fill="#F07654"/>
<path d="M173.857 142.979C173.857 142.979 173.382 143.217 172.55 143.692C171.718 144.048 170.411 144.643 168.986 145.355C165.896 146.781 161.619 148.564 156.866 150.465C152.113 152.366 147.717 154.029 144.627 155.218C143.083 155.812 141.775 156.287 140.825 156.525C139.874 156.762 139.399 157 139.399 156.881C139.399 156.881 139.874 156.643 140.706 156.287C141.657 155.931 142.964 155.336 144.39 154.742C147.598 153.435 151.875 151.772 156.628 149.871C161.262 147.97 165.54 146.187 168.748 144.88C170.174 144.286 171.481 143.811 172.431 143.336C173.382 143.098 173.857 142.86 173.857 142.979Z" fill="#F07654"/>
<path d="M174.448 118.739C174.448 118.739 173.972 118.977 173.259 119.452C172.428 119.809 171.239 120.403 169.814 121.116C166.843 122.423 162.803 124.205 158.288 126.106C153.773 127.889 149.614 129.552 146.525 130.622C144.98 131.216 143.792 131.572 142.96 131.81C142.128 132.047 141.653 132.166 141.653 132.166C141.653 132.166 142.128 131.929 142.96 131.572C143.911 131.216 145.099 130.74 146.525 130.146C149.614 128.958 153.654 127.295 158.169 125.512C162.684 123.73 166.605 122.066 169.814 120.759C171.239 120.165 172.428 119.69 173.378 119.334C173.972 118.858 174.448 118.739 174.448 118.739Z" fill="#F07654"/>
<path d="M171.253 98.7624C174.576 97.531 177.214 96.3831 177.146 96.1985C177.078 96.0138 174.328 96.8625 171.005 98.0939C167.683 99.3253 165.044 100.473 165.113 100.658C165.181 100.842 167.93 99.9938 171.253 98.7624Z" fill="#F07654"/>
<path d="M101.61 121.71C101.61 121.71 101.016 122.067 99.7088 122.661C98.5206 123.255 96.7383 124.087 94.4807 125.037C90.0843 126.938 83.9056 129.552 77.1328 132.285C70.36 135.018 64.0624 137.513 59.5472 139.177C57.2896 140.009 55.5073 140.722 54.2003 141.078C52.8932 141.553 52.1803 141.791 52.1803 141.672C52.1803 141.672 52.8932 141.316 54.0814 140.84C55.3885 140.246 57.1708 139.533 59.4284 138.702C63.9436 136.919 70.1223 134.424 76.8951 131.691C83.6679 128.958 89.8467 126.463 94.3619 124.562C96.5006 123.73 98.283 122.898 99.7088 122.423C100.897 121.948 101.61 121.71 101.61 121.71Z" fill="#F07654"/>
<path d="M125.137 88.7966C125.137 88.7966 124.543 89.153 123.236 89.7471C122.048 90.3413 120.266 91.173 118.008 92.1236C113.612 94.0247 107.433 96.6388 100.66 99.3717C93.8873 102.105 87.5898 104.6 83.0746 106.263C80.817 107.095 79.0346 107.808 77.7276 108.164C76.4206 108.64 75.7076 108.877 75.7076 108.759C75.7076 108.759 76.4206 108.402 77.6088 107.927C78.9158 107.333 80.6981 106.62 82.9557 105.788C87.4709 104.006 93.6496 101.51 100.422 98.7776C107.195 96.0447 113.374 93.5494 117.889 91.6483C120.028 90.8165 121.81 89.9848 123.236 89.5095C124.424 89.0342 125.137 88.7966 125.137 88.7966Z" fill="#F07654"/>
<path d="M147.001 55.883C147.001 55.883 146.406 56.2395 145.099 56.8336C143.911 57.4277 142.129 58.2594 139.871 59.21C135.475 61.1111 129.296 63.7252 122.523 66.4581C115.751 69.191 109.453 71.6862 104.938 73.3497C102.68 74.1815 100.898 74.8944 99.5909 75.2509C98.2838 75.7261 97.5709 75.9638 97.5709 75.845C97.5709 75.845 98.2838 75.4885 99.4721 75.0132C100.779 74.4191 102.561 73.7062 104.819 72.8744C109.334 71.0921 115.513 68.5969 122.286 65.864C129.059 63.1311 135.237 60.6358 139.752 58.7347C141.891 57.9029 143.674 57.0712 145.099 56.5959C146.288 56.1206 147.001 55.883 147.001 55.883Z" fill="#F07654"/>
<path d="M169.578 24.2766C169.578 24.2766 168.984 24.6331 167.677 25.2272C166.489 25.8213 164.706 26.653 162.449 27.6036C158.052 29.5048 151.874 32.1188 145.101 34.8517C138.328 37.5846 132.031 40.0799 127.515 41.7433C125.258 42.5751 123.475 43.288 122.168 43.6445C120.861 44.1198 120.148 44.3574 120.148 44.2386C120.148 44.2386 120.861 43.8821 122.05 43.4068C123.357 42.8127 125.139 42.0998 127.397 41.2681C131.912 39.4857 138.09 36.9905 144.863 34.2576C151.636 31.5247 157.815 29.0295 162.33 27.1283C164.469 26.2966 166.251 25.4648 167.677 24.9895C168.865 24.5143 169.578 24.2766 169.578 24.2766Z" fill="#F07654"/>
<path d="M229.821 72.6369C229.821 72.6369 229.583 72.8745 229.108 73.4686C228.632 73.9439 227.919 74.6568 226.969 75.6074C225.068 77.2709 221.978 79.6473 217.701 81.5485C213.423 83.4496 207.957 84.9943 201.779 85.1131C198.689 85.2319 195.481 84.8755 192.154 84.0437C188.827 83.212 185.619 81.9049 182.411 80.3603C175.994 77.2709 170.291 73.5875 164.825 70.9734C159.359 68.3593 153.894 67.0523 149.26 66.9335C144.626 66.8147 140.942 67.7652 138.685 68.9534C137.496 69.5475 136.665 70.0228 136.071 70.3793C135.476 70.7357 135.239 70.9734 135.239 70.9734C135.239 70.9734 135.476 70.7357 136.071 70.2605C136.546 69.7852 137.496 69.3099 138.566 68.7158C140.823 67.5276 144.626 66.3394 149.26 66.4582C153.894 66.577 159.478 67.884 165.063 70.4981C170.648 72.9934 176.351 76.6768 182.767 79.7662C185.975 81.3108 189.184 82.6179 192.392 83.3308C195.6 84.1625 198.808 84.519 201.898 84.4002C207.957 84.2814 213.423 82.8555 217.582 80.9544C221.741 79.0532 224.83 76.9145 226.85 75.251C227.919 74.4192 228.632 73.7063 229.108 73.231C229.464 72.8745 229.821 72.6369 229.821 72.6369Z" fill="white"/>
<path d="M213.184 13.9392C213.184 13.9392 212.709 14.2956 211.639 14.7709C210.689 15.365 209.144 15.9591 207.362 16.7909C205.461 17.6226 203.203 18.4544 200.708 19.1673C198.213 19.8802 195.361 20.5931 192.272 21.0684C189.182 21.5437 186.331 21.7814 183.716 21.9002C181.102 22.019 178.607 21.9002 176.706 21.7814C174.686 21.6625 173.141 21.4249 171.953 21.1873C170.884 20.9496 170.29 20.8308 170.29 20.8308C170.29 20.8308 170.884 20.8308 172.072 20.9496C173.141 21.0684 174.805 21.1872 176.825 21.3061C178.845 21.4249 181.221 21.4249 183.835 21.3061C186.449 21.1872 189.42 20.9496 192.39 20.4743C195.361 19.999 198.213 19.2861 200.708 18.5732C203.203 17.8603 205.461 17.0285 207.362 16.3156C209.263 15.6027 210.689 15.0085 211.758 14.5333C212.59 14.058 213.184 13.8203 213.184 13.9392Z" fill="white"/>
<path d="M128.94 145.831C128.94 145.831 128.584 145.474 127.871 144.643C127.158 143.811 126.207 142.623 125.019 141.316C122.643 138.464 119.197 134.78 115.038 130.859C113.018 128.958 110.879 127.295 108.859 126.106C106.721 124.918 104.701 124.086 102.918 123.849C99.3536 123.136 96.9772 123.968 96.9772 123.849C96.9772 123.849 97.096 123.73 97.3336 123.73C97.5713 123.611 98.0466 123.492 98.5218 123.492C99.5912 123.374 101.136 123.255 102.918 123.492C104.819 123.849 106.958 124.562 109.097 125.75C111.236 126.938 113.375 128.602 115.513 130.622C119.672 134.424 122.999 138.345 125.375 141.197C126.564 142.623 127.395 143.811 127.99 144.643C128.584 145.355 128.94 145.831 128.94 145.831Z" fill="white"/>
<path d="M223.642 181.715C223.642 181.715 223.523 181.834 223.166 182.071C222.81 182.309 222.335 182.665 221.741 183.022C220.552 183.735 218.651 184.804 216.156 185.636C211.284 187.537 203.917 188.844 196.075 187.181C188.233 185.517 181.935 181.477 178.252 177.794C176.351 176.011 175.044 174.348 174.212 173.16C173.737 172.566 173.499 172.09 173.261 171.734C173.024 171.377 172.905 171.259 173.024 171.259C173.024 171.259 173.499 171.853 174.45 173.041C175.4 174.229 176.707 175.774 178.608 177.437C182.411 180.883 188.589 184.923 196.313 186.468C204.036 188.012 211.284 186.824 216.156 185.042C218.532 184.21 220.433 183.259 221.741 182.547C222.929 182.071 223.642 181.715 223.642 181.715Z" fill="white"/>
<path d="M258.337 257.047C258.337 257.047 258.218 256.81 257.981 256.453C257.743 256.097 257.387 255.503 257.03 254.79C256.317 253.364 254.891 251.225 252.99 248.73C252.515 248.136 251.921 247.542 251.327 246.829C251.089 246.472 250.733 246.116 250.495 245.759C250.138 245.403 249.782 245.165 249.544 244.809C248.831 244.096 248.118 243.383 247.406 242.67C246.574 241.957 245.742 241.363 244.91 240.65C241.346 237.917 237.068 235.066 231.84 232.927C226.612 230.788 220.552 229.124 214.017 228.768C207.363 228.412 200.233 229.362 193.342 232.095C186.45 234.828 179.677 238.987 172.548 242.908C168.983 244.928 165.3 246.829 161.379 248.492C157.458 250.037 153.299 251.344 149.021 251.701C144.744 252.176 140.348 251.819 136.189 250.869C132.03 250.037 128.109 248.492 124.425 246.829C116.94 243.383 110.405 238.987 104.345 234.59C98.2848 230.194 92.4625 226.035 86.7591 222.708C81.0557 219.381 75.3523 216.767 69.8865 215.46C64.4207 214.153 59.1926 213.915 54.7962 214.509C50.281 214.985 46.5975 216.292 43.8646 217.718C41.0129 219.144 39.1118 220.807 37.9236 221.758C37.3294 222.352 36.8542 222.827 36.6165 223.065C36.2601 223.421 36.1412 223.54 36.1412 223.54C36.1412 223.54 36.2601 223.421 36.6165 223.065C36.973 222.708 37.3294 222.233 37.9236 221.639C39.2306 220.569 41.0129 218.906 43.8646 217.361C46.7163 215.935 50.3998 214.628 54.915 214.034C59.4302 213.44 64.6584 213.678 70.1241 214.985C75.7087 216.292 81.4122 218.906 87.2344 222.233C93.0567 225.56 98.7601 229.719 104.939 234.115C110.999 238.393 117.534 242.908 124.901 246.235C128.584 247.898 132.505 249.324 136.545 250.275C140.585 251.106 144.863 251.582 149.14 250.988C153.418 250.512 157.458 249.324 161.379 247.779C165.3 246.235 168.983 244.215 172.429 242.314C179.559 238.393 186.213 234.234 193.223 231.501C195.005 230.907 196.788 230.194 198.57 229.837C199.402 229.6 200.352 229.362 201.184 229.125C202.135 229.006 202.966 228.887 203.798 228.649C207.363 228.055 210.809 228.055 214.136 228.174C220.79 228.53 226.968 230.194 232.196 232.451C237.425 234.709 241.821 237.561 245.267 240.294C246.099 241.007 246.93 241.72 247.762 242.432C248.475 243.145 249.188 243.858 249.901 244.571C250.257 244.928 250.614 245.284 250.851 245.522C251.089 245.878 251.445 246.235 251.683 246.591C252.277 247.304 252.753 247.898 253.228 248.492C255.129 250.988 256.436 253.126 257.268 254.552C257.624 255.265 257.981 255.859 258.218 256.216C258.218 256.81 258.337 257.047 258.337 257.047Z" fill="white"/>
<path d="M222.336 306.596C222.336 306.596 222.099 306.715 221.742 306.715C221.267 306.834 220.673 306.952 219.96 307.071C219.247 307.19 218.296 307.428 217.108 307.428C216.039 307.546 214.732 307.665 213.425 307.784C212.712 307.784 211.999 307.903 211.286 307.903C210.573 307.903 209.741 307.903 208.909 307.903C207.246 307.903 205.582 307.784 203.681 307.546C199.998 307.19 196.077 306.477 191.918 305.289C187.878 304.101 184.076 302.556 180.749 300.892C179.085 300.061 177.541 299.229 176.234 298.397C175.521 297.922 174.808 297.565 174.214 297.09C173.62 296.615 173.025 296.258 172.431 295.783C171.243 295.07 170.293 294.238 169.461 293.526C168.629 292.813 167.916 292.219 167.322 291.624C166.847 291.149 166.371 290.674 166.015 290.436C165.777 290.199 165.54 289.961 165.54 289.961C165.54 289.961 165.777 290.08 166.015 290.317C166.371 290.674 166.847 291.03 167.441 291.506C168.035 291.981 168.748 292.575 169.58 293.288C170.411 293.882 171.481 294.714 172.55 295.427C173.144 295.783 173.738 296.258 174.332 296.615C174.927 297.09 175.639 297.447 176.352 297.803C177.778 298.635 179.323 299.467 180.868 300.298C184.195 301.843 187.878 303.388 191.918 304.576C195.958 305.764 199.879 306.477 203.562 306.834C205.345 306.952 207.127 307.19 208.672 307.19C209.504 307.19 210.216 307.309 211.048 307.19C211.761 307.19 212.474 307.19 213.187 307.19C214.613 307.19 215.801 307.071 216.87 306.952C217.94 306.834 218.89 306.715 219.722 306.596C220.435 306.477 221.029 306.477 221.504 306.358C222.099 306.596 222.336 306.596 222.336 306.596Z" fill="white"/>
<path d="M706.055 212.965L745.622 209.044L749.781 250.987L710.214 254.909L716.986 324.538L664.943 329.647L658.17 260.018L523.783 273.207L519.387 241.482L632.623 16.7907L686.449 11.5626L706.055 212.965ZM570.005 226.273L654.13 218.074L641.654 90.9352L640.347 90.5787L636.901 100.203L570.005 226.273Z" fill="#F07654"/>
<g opacity="0.4">
<path opacity="0.4" d="M706.055 212.965L745.622 209.044L749.781 250.987L710.214 254.909L716.986 324.538L664.943 329.647L658.17 260.018L523.783 273.207L519.387 241.482L632.623 16.7907L686.449 11.5626L706.055 212.965ZM570.005 226.273L654.13 218.074L641.654 90.9352L640.347 90.5787L636.901 100.203L570.005 226.273Z" fill="black"/>
</g>
<path d="M739.207 209.757L778.775 205.835L782.933 247.779L743.366 251.7L750.139 321.33L698.095 326.439L691.322 256.81L556.935 269.999L552.539 238.274L665.776 13.4637L719.602 8.2356L739.207 209.757ZM603.038 223.064L687.164 214.866L674.687 87.7271L673.38 87.3706L669.934 96.9951L603.038 223.064Z" fill="#F07654"/>
<path d="M553.963 244.096C553.963 244.096 553.607 244.452 552.775 245.046C551.943 245.641 550.874 246.353 549.448 247.304C546.597 249.205 542.675 251.7 538.279 254.314C533.883 256.929 529.843 259.305 526.872 260.968C525.446 261.8 524.139 262.394 523.308 262.87C522.476 263.345 522 263.464 522 263.464C522 263.464 522.357 263.107 523.189 262.632C524.139 262.038 525.209 261.444 526.635 260.612C529.605 258.83 533.645 256.453 538.041 253.839C542.438 251.225 546.359 248.849 549.329 246.948C550.636 246.116 551.825 245.403 552.775 244.928C553.488 244.334 553.963 244.096 553.963 244.096Z" fill="#F07654"/>
<path d="M568.103 206.192C568.103 206.192 567.509 206.667 566.439 207.38C565.37 208.093 563.825 209.162 561.805 210.351C557.884 212.846 552.418 216.292 546.358 219.856C540.299 223.54 534.714 226.748 530.674 229.006C528.654 230.194 526.991 231.026 525.802 231.62C524.614 232.214 524.02 232.57 524.02 232.451C524.02 232.451 524.614 231.976 525.684 231.382C526.872 230.669 528.535 229.718 530.436 228.53C534.476 226.035 539.942 222.827 546.002 219.143C552.062 215.46 557.528 212.252 561.568 209.757C563.469 208.568 565.132 207.618 566.321 206.905C567.39 206.548 568.103 206.192 568.103 206.192Z" fill="#F07654"/>
<path d="M586.995 171.496C586.995 171.496 586.401 171.971 585.332 172.684C584.144 173.397 582.599 174.467 580.46 175.774C576.302 178.269 570.598 181.715 564.301 185.398C557.884 189.082 552.062 192.409 547.903 194.666C545.765 195.854 544.101 196.686 542.913 197.399C541.725 197.993 541.012 198.35 541.012 198.35C541.012 198.35 541.606 197.874 542.794 197.28C544.101 196.567 545.765 195.617 547.785 194.429C552.062 191.933 557.765 188.606 564.063 185.042C570.361 181.358 576.064 178.031 580.341 175.536C582.361 174.348 584.025 173.397 585.332 172.684C586.283 171.734 586.995 171.377 586.995 171.496Z" fill="#F07654"/>
<path d="M685.736 194.429C685.736 194.429 685.38 194.785 684.548 195.26C683.716 195.736 682.647 196.567 681.221 197.399C678.369 199.181 674.448 201.677 669.933 204.172C665.537 206.786 661.378 209.044 658.407 210.588C656.863 211.42 655.674 212.014 654.843 212.371C654.011 212.846 653.536 212.965 653.536 212.965C653.536 212.965 654.011 212.608 654.724 212.133C655.674 211.539 656.863 210.945 658.17 210.113C661.259 208.331 665.18 206.073 669.576 203.578C673.973 200.964 677.894 198.706 680.865 196.924C682.29 196.092 683.36 195.498 684.31 194.904C685.261 194.666 685.736 194.429 685.736 194.429Z" fill="#F07654"/>
<path d="M691.203 259.661C691.203 259.661 690.846 260.018 690.014 260.493C689.302 260.968 688.113 261.8 686.806 262.632C684.073 264.414 680.271 266.791 675.875 269.405C671.597 272.019 667.676 274.158 664.705 275.702C663.28 276.534 662.091 277.128 661.26 277.485C660.428 277.841 659.953 278.079 659.953 278.079C659.953 278.079 660.309 277.722 661.141 277.247C662.091 276.653 663.161 276.059 664.468 275.227C667.438 273.445 671.241 271.187 675.518 268.692C679.796 266.197 683.598 263.82 686.45 262.038C687.757 261.206 688.945 260.612 689.777 260.018C690.727 259.78 691.203 259.543 691.203 259.661Z" fill="#F07654"/>
<path d="M693.816 282.356C693.816 282.356 693.46 282.713 692.628 283.188C691.915 283.663 690.727 284.495 689.42 285.327C686.687 287.109 682.885 289.486 678.488 292.1C674.211 294.714 670.29 296.853 667.319 298.397C665.893 299.229 664.705 299.823 663.873 300.18C663.042 300.536 662.566 300.774 662.566 300.774C662.566 300.774 662.923 300.417 663.755 299.942C664.705 299.348 665.775 298.754 667.082 297.922C670.052 296.14 673.854 293.882 678.132 291.387C682.41 288.892 686.212 286.515 689.064 284.733C690.371 283.901 691.559 283.307 692.391 282.713C693.341 282.594 693.816 282.356 693.816 282.356Z" fill="#F07654"/>
<path d="M696.547 305.051C696.547 305.051 696.191 305.408 695.359 305.883C694.646 306.358 693.458 307.19 692.151 308.022C689.418 309.804 685.616 312.18 681.219 314.794C676.942 317.409 673.021 319.547 670.05 321.092C668.624 321.924 667.436 322.518 666.604 322.874C665.773 323.231 665.297 323.468 665.297 323.468C665.297 323.468 665.654 323.112 666.486 322.637C667.436 322.043 668.506 321.448 669.813 320.617C672.783 318.834 676.585 316.577 680.863 314.082C685.141 311.586 688.943 309.21 691.795 307.428C693.102 306.596 694.29 306.002 695.121 305.408C696.072 305.289 696.547 305.051 696.547 305.051Z" fill="#F07654"/>
<path d="M683.002 170.427C683.002 170.427 682.645 170.783 681.814 171.258C680.982 171.734 679.912 172.565 678.487 173.397C675.635 175.179 671.714 177.675 667.199 180.17C662.802 182.784 658.643 185.042 655.673 186.586C654.128 187.418 652.94 188.012 652.108 188.369C651.277 188.844 650.801 188.963 650.801 188.963C650.801 188.963 651.277 188.606 651.989 188.131C652.94 187.537 654.128 186.943 655.435 186.111C658.525 184.329 662.446 182.071 666.842 179.576C671.239 176.962 675.16 174.704 678.13 172.922C679.556 172.09 680.625 171.496 681.576 170.902C682.527 170.664 683.002 170.427 683.002 170.427Z" fill="#F07654"/>
<path d="M680.271 146.425C680.271 146.425 679.914 146.781 679.083 147.257C678.251 147.732 677.182 148.564 675.756 149.395C672.904 151.178 668.983 153.673 664.468 156.168C660.071 158.782 655.913 161.04 652.942 162.584C651.397 163.416 650.209 164.01 649.377 164.367C648.546 164.842 648.07 164.961 648.07 164.961C648.07 164.961 648.546 164.604 649.259 164.129C650.209 163.535 651.397 162.941 652.704 162.109C655.794 160.327 659.715 158.069 664.111 155.574C668.508 152.96 672.429 150.702 675.399 148.92C676.825 148.088 677.894 147.494 678.845 146.9C679.677 146.662 680.152 146.425 680.271 146.425Z" fill="#F07654"/>
<path d="M677.42 122.423C677.42 122.423 677.064 122.779 676.351 123.255C675.638 123.73 674.569 124.443 673.143 125.275C670.41 126.938 666.608 129.314 662.449 131.81C658.171 134.305 654.369 136.444 651.517 137.87C650.092 138.583 648.903 139.177 648.19 139.652C647.359 140.008 646.883 140.246 646.883 140.246C646.883 140.246 647.24 139.89 648.072 139.533C648.903 139.058 650.092 138.345 651.399 137.632C654.25 135.968 658.053 133.83 662.211 131.453C666.37 128.958 670.172 126.819 673.024 125.156C674.331 124.443 675.4 123.73 676.351 123.255C676.945 122.542 677.42 122.304 677.42 122.423Z" fill="#F07654"/>
<path d="M671.406 103.039C674.522 101.353 676.973 99.8453 676.879 99.6721C676.786 99.499 674.183 100.726 671.066 102.412C667.95 104.099 665.499 105.606 665.593 105.779C665.687 105.952 668.289 104.726 671.406 103.039Z" fill="#F07654"/>
<path d="M605.77 135.612C605.77 135.612 605.176 136.087 604.106 136.8C602.918 137.513 601.373 138.583 599.235 139.89C595.076 142.385 589.372 145.831 583.075 149.514C576.659 153.198 570.836 156.525 566.678 158.782C564.539 159.97 562.875 160.802 561.687 161.515C560.499 162.109 559.786 162.466 559.786 162.466C559.786 162.466 560.38 161.99 561.568 161.396C562.875 160.683 564.539 159.733 566.559 158.545C570.836 156.049 576.54 152.722 582.837 149.158C589.135 145.474 594.838 142.147 599.116 139.652C601.136 138.464 602.799 137.513 604.106 136.8C605.057 135.85 605.651 135.493 605.77 135.612Z" fill="#F07654"/>
<path d="M624.426 99.728C624.426 99.728 623.832 100.203 622.762 100.916C621.574 101.629 620.029 102.699 617.891 104.006C613.732 106.501 608.028 109.947 601.731 113.63C595.315 117.314 589.492 120.641 585.334 122.898C583.195 124.086 581.531 124.918 580.343 125.631C579.155 126.225 578.442 126.582 578.442 126.582C578.442 126.582 579.036 126.106 580.224 125.512C581.531 124.799 583.195 123.849 585.215 122.66C589.492 120.165 595.196 116.838 601.493 113.274C607.791 109.59 613.494 106.263 617.772 103.768C619.792 102.58 621.455 101.629 622.762 100.916C623.713 99.9656 624.426 99.6092 624.426 99.728Z" fill="#F07654"/>
<path d="M641.418 64.0817C641.418 64.0817 640.824 64.5569 639.754 65.2699C638.566 65.9828 637.021 67.0522 634.883 68.3592C630.724 70.8545 625.021 74.3003 618.723 77.9837C612.307 81.6672 606.484 84.9942 602.326 87.2518C600.187 88.44 598.523 89.2718 597.335 89.9847C596.147 90.5788 595.434 90.9353 595.434 90.9353C595.434 90.9353 596.028 90.46 597.216 89.8659C598.523 89.1529 600.187 88.2024 602.207 87.0142C606.484 84.5189 612.188 81.1919 618.485 77.6273C624.783 73.9438 630.486 70.6168 634.764 68.1216C636.784 66.9334 638.447 65.9828 639.754 65.2699C640.705 64.4381 641.299 64.0817 641.418 64.0817Z" fill="#F07654"/>
<path d="M659.359 29.5048C659.359 29.5048 658.765 29.98 657.696 30.693C656.508 31.4059 654.963 32.4753 652.824 33.7823C648.665 36.2776 642.962 39.7234 636.664 43.4068C630.248 47.0903 624.426 50.4173 620.267 52.6749C618.128 53.8631 616.465 54.6949 615.277 55.4078C614.088 56.0019 613.375 56.3584 613.375 56.3584C613.375 56.3584 613.97 55.8831 615.158 55.289C616.465 54.576 618.128 53.6255 620.148 52.4373C624.426 49.942 630.129 46.615 636.427 43.0504C642.724 39.3669 648.428 36.0399 652.705 33.5447C654.725 32.3565 656.389 31.4059 657.696 30.693C658.646 29.8612 659.359 29.5048 659.359 29.5048Z" fill="#F07654"/>
<path d="M725.66 68.9533C725.66 68.9533 725.423 69.3098 725.066 69.7851C724.71 70.3792 724.116 71.2109 723.284 72.1615C721.62 74.1814 718.887 76.7955 714.966 79.4096C711.045 81.9048 705.817 84.1624 699.757 85.2318C696.668 85.7071 693.46 85.8259 690.133 85.4695C686.806 85.113 683.36 84.2813 680.033 83.2119C673.26 81.0731 667.081 78.2214 661.259 76.4391C655.437 74.6567 649.852 74.0626 645.337 74.6567C640.703 75.132 637.257 76.6767 635.118 78.1026C634.049 78.8155 633.217 79.4096 632.742 79.8849C632.267 80.3602 631.91 80.5978 631.91 80.5978C631.91 80.5978 632.148 80.3602 632.623 79.8849C633.098 79.4096 633.811 78.6967 634.881 77.9837C637.019 76.439 640.584 74.8944 645.218 74.3003C649.852 73.7062 655.556 74.1814 661.378 75.9638C667.319 77.7461 673.498 80.479 680.152 82.7366C683.479 83.806 686.806 84.6377 690.133 84.9942C693.46 85.3507 696.668 85.2318 699.638 84.7566C705.698 83.806 710.808 81.5484 714.729 79.1719C718.65 76.6767 721.383 74.0626 723.046 72.1615C723.878 71.2109 724.591 70.3792 724.947 69.9039C725.423 69.191 725.66 68.9533 725.66 68.9533Z" fill="white"/>
<path d="M701.064 13.1073C701.064 13.1073 700.589 13.5826 699.639 14.1767C698.688 14.8896 697.381 15.7214 695.599 16.7908C693.935 17.8601 691.796 18.9295 689.301 20.1177C686.925 21.1871 684.192 22.2565 681.221 23.2071C678.251 24.1577 675.399 24.7518 672.785 25.2271C670.171 25.7024 667.794 25.94 665.774 26.0588C663.754 26.1776 662.091 26.1776 661.022 26.1776C659.952 26.1776 659.239 26.0588 659.239 26.0588C659.239 26.0588 659.833 25.94 661.022 25.94C662.091 25.94 663.754 25.8212 665.774 25.5835C667.794 25.4647 670.171 25.1082 672.666 24.633C675.28 24.1577 678.132 23.4448 680.984 22.613C683.835 21.6624 686.568 20.593 689.063 19.5236C691.44 18.4543 693.579 17.3849 695.361 16.3155C697.143 15.3649 698.45 14.5332 699.401 13.939C700.47 13.3449 701.064 13.1073 701.064 13.1073Z" fill="white"/>
<path d="M636.07 155.574C636.07 155.574 635.595 155.217 634.882 154.505C634.05 153.792 632.98 152.722 631.673 151.534C628.94 149.158 625.019 145.831 620.385 142.622C618.128 141.078 615.751 139.652 613.494 138.701C611.236 137.751 609.097 137.394 607.315 137.275C603.631 137.038 601.493 138.226 601.493 138.107C601.493 138.107 601.612 137.988 601.849 137.87C602.087 137.751 602.443 137.632 602.919 137.394C603.869 137.038 605.414 136.8 607.315 136.8C609.216 136.8 611.474 137.275 613.731 138.107C615.989 139.058 618.365 140.365 620.742 142.028C625.376 145.236 629.297 148.563 632.03 151.059C633.337 152.366 634.406 153.435 635.119 154.148C635.713 155.217 636.189 155.574 636.07 155.574Z" fill="white"/>
<path d="M735.046 177.794C735.046 177.794 734.927 177.912 734.689 178.269C734.451 178.506 733.976 178.863 733.382 179.338C732.313 180.289 730.53 181.477 728.273 182.784C723.757 185.279 716.628 187.656 708.548 187.18C700.468 186.705 693.696 183.497 689.537 180.408C687.398 178.863 685.853 177.437 684.903 176.368C684.428 175.892 684.071 175.417 683.834 175.18C683.596 174.942 683.477 174.704 683.477 174.704C683.477 174.704 684.071 175.298 685.141 176.249C686.21 177.199 687.755 178.625 689.893 180.051C694.052 183.022 700.825 186.111 708.667 186.586C716.509 187.062 723.52 184.804 728.154 182.428C730.412 181.239 732.194 180.051 733.382 179.219C734.333 178.269 734.927 177.794 735.046 177.794Z" fill="white"/>
<path d="M779.845 247.423C779.845 247.423 779.726 247.304 779.488 246.948C779.251 246.591 778.775 246.116 778.3 245.403C777.35 244.096 775.686 242.195 773.428 240.056C772.834 239.581 772.24 238.987 771.527 238.392C771.171 238.155 770.814 237.798 770.577 237.442C770.22 237.204 769.864 236.848 769.389 236.61C768.557 236.016 767.844 235.422 767.012 234.828C766.18 234.234 765.23 233.758 764.279 233.164C760.358 230.907 755.724 228.768 750.258 227.342C744.793 225.916 738.614 225.203 731.96 225.797C725.306 226.391 718.414 228.411 711.879 231.976C705.344 235.66 699.284 240.65 692.868 245.641C689.659 248.136 686.214 250.512 682.649 252.651C678.966 254.79 675.045 256.572 670.767 257.642C666.489 258.711 662.212 258.949 657.934 258.711C653.657 258.473 649.617 257.523 645.696 256.334C637.853 254.077 630.724 250.512 624.07 247.066C617.416 243.621 611.119 240.294 604.94 237.798C598.761 235.303 592.82 233.521 587.236 233.045C581.651 232.57 576.423 233.045 572.145 234.234C567.749 235.303 564.303 237.085 561.689 238.868C559.075 240.65 557.411 242.551 556.342 243.739C555.867 244.334 555.51 244.928 555.154 245.284C554.916 245.641 554.797 245.759 554.797 245.759C554.797 245.759 554.916 245.522 555.154 245.165C555.391 244.809 555.748 244.333 556.223 243.621C557.293 242.314 558.837 240.412 561.57 238.63C564.184 236.729 567.63 234.947 572.026 233.758C576.423 232.57 581.532 231.976 587.236 232.57C592.939 233.045 598.999 234.828 605.178 237.323C611.356 239.818 617.654 243.145 624.308 246.591C630.962 250.037 637.972 253.483 645.814 255.74C649.736 256.929 653.776 257.76 657.934 257.998C662.093 258.236 666.371 258.117 670.529 256.929C674.688 255.859 678.609 254.077 682.174 252.057C685.738 249.918 689.184 247.542 692.392 245.046C698.809 240.056 704.987 235.065 711.523 231.382C713.186 230.55 714.85 229.6 716.513 228.887C717.345 228.53 718.177 228.174 719.008 227.817C719.84 227.58 720.672 227.223 721.622 226.986C725.068 225.916 728.514 225.441 731.841 225.084C738.495 224.49 744.793 225.322 750.258 226.748C755.724 228.174 760.477 230.431 764.279 232.689C765.23 233.283 766.18 233.877 767.012 234.471C767.844 235.065 768.676 235.66 769.389 236.254C769.745 236.491 770.102 236.848 770.577 237.085C770.933 237.442 771.29 237.68 771.527 238.036C772.121 238.63 772.834 239.224 773.428 239.699C775.686 241.957 777.35 243.858 778.181 245.165C778.657 245.878 779.013 246.353 779.251 246.71C779.726 247.304 779.845 247.423 779.845 247.423Z" fill="white"/>
<path d="M751.325 301.605C751.325 301.605 751.088 301.724 750.731 301.843C750.256 301.962 749.662 302.199 749.068 302.437C748.355 302.675 747.404 303.031 746.335 303.269C745.266 303.507 744.077 303.863 742.651 304.101C741.939 304.219 741.226 304.338 740.513 304.457C739.8 304.576 738.968 304.695 738.136 304.814C736.473 305.051 734.809 305.17 732.908 305.289C729.225 305.408 725.185 305.289 721.026 304.695C716.867 304.101 712.946 303.031 709.381 301.962C707.599 301.368 706.054 300.774 704.51 300.061C703.797 299.704 703.084 299.467 702.371 299.11C701.658 298.754 701.064 298.397 700.47 298.16C699.163 297.565 698.212 296.853 697.262 296.377C696.311 295.783 695.479 295.308 694.885 294.833C694.291 294.476 693.816 294.12 693.459 293.763C693.103 293.526 692.984 293.407 692.984 293.407C692.984 293.407 693.222 293.526 693.578 293.644C693.935 293.882 694.529 294.238 695.123 294.595C695.717 295.07 696.549 295.545 697.499 296.021C698.45 296.496 699.519 297.209 700.826 297.803C701.42 298.16 702.133 298.397 702.727 298.754C703.44 299.11 704.153 299.348 704.866 299.704C706.292 300.417 707.956 300.892 709.738 301.487C713.184 302.556 717.105 303.625 721.264 304.219C725.422 304.814 729.462 304.932 733.146 304.814C734.928 304.695 736.71 304.695 738.255 304.457C739.087 304.338 739.8 304.338 740.632 304.219C741.344 304.101 742.057 303.982 742.77 303.863C744.196 303.625 745.384 303.388 746.454 303.15C747.523 302.912 748.474 302.675 749.187 302.437C749.9 302.199 750.494 302.081 750.85 301.962C751.088 301.605 751.207 301.605 751.325 301.605Z" fill="white"/>
</svg>
