<svg width="36" height="20" viewBox="0 0 36 20" fill="none" xmlns="http://www.w3.org/2000/svg">
<path d="M4.63354 15.6331C6.0594 9.33552 10.6934 3.98856 16.7533 1.73096C22.6944 -0.526651 29.8237 0.42392 35.0518 4.10738C27.2096 12.9002 17.3474 19.7918 4.63354 15.6331Z" fill="#F07654"/>
<path d="M0 19.4353C0 19.4353 0.831749 18.3659 2.49525 16.9401C4.15875 15.5142 6.53517 13.7319 9.38688 12.1873C12.2386 10.6426 15.0903 9.57319 17.1103 8.97909C19.1302 8.38498 20.5561 8.14733 20.5561 8.26615C20.5561 8.38498 19.2491 8.74144 17.2291 9.45437C15.2091 10.1673 12.4762 11.2367 9.62453 12.7814C6.77282 14.326 4.39639 16.1083 2.73289 17.4154C1.06939 18.6036 0.118821 19.5541 0 19.4353Z" fill="#263238"/>
</svg>
