<svg width="23" height="32" viewBox="0 0 23 32" fill="none" xmlns="http://www.w3.org/2000/svg">
<path d="M2.48249 25.5902C0.581354 19.5303 1.88841 12.401 5.92832 7.41054C9.96823 2.42005 16.6222 -0.312832 22.9197 0.281274C20.5433 11.9258 15.5528 22.7385 2.48249 25.5902Z" fill="#F07654"/>
<g opacity="0.3">
<path opacity="0.3" d="M2.48249 25.5902C0.581354 19.5303 1.88841 12.401 5.92832 7.41054C9.96823 2.42005 16.6222 -0.312832 22.9197 0.281274C20.5433 11.9258 15.5528 22.7385 2.48249 25.5902Z" fill="black"/>
</g>
<path d="M0.343566 31.2937C0.224745 31.2937 0.581223 29.9867 1.17533 27.9667C1.88825 25.9468 3.07646 23.2138 4.73996 20.3621C6.40345 17.5104 8.30457 15.2528 9.84925 13.5893C11.3939 12.0446 12.3445 11.2129 12.4633 11.2129C12.5821 11.3317 11.6315 12.2823 10.2057 13.8269C8.77984 15.4904 6.99756 17.7481 5.33406 20.5998C3.67057 23.3327 2.48239 26.0655 1.65064 28.0855C0.818894 29.9867 0.462387 31.2937 0.343566 31.2937Z" fill="#263238"/>
</svg>
