<svg width="68" height="73" viewBox="0 0 68 73" fill="none" xmlns="http://www.w3.org/2000/svg">
<path d="M36.1597 37.7138C33.6644 28.6834 36.0409 18.4647 42.1008 11.2166C48.1607 3.96853 57.9041 0.166251 67.291 1.11682C68.9545 10.1472 66.1028 19.2965 61.4688 27.1387C55.7653 36.4067 44.7148 40.3278 36.1597 37.7138Z" fill="#F07654"/>
<path d="M0.988281 72.8849C0.988281 72.8849 1.10713 72.6473 1.46359 72.2908C1.82006 71.8156 2.41415 71.2214 3.00826 70.5085C4.31529 68.9638 6.33521 66.8251 8.83045 64.211C13.8209 58.9828 20.8314 51.8536 28.5548 44.0113C36.2782 36.1691 43.4074 29.1587 48.5167 24.0494C51.012 21.5541 53.1507 19.5342 54.5766 18.1083C55.2895 17.3954 55.8837 16.9201 56.2401 16.4448C56.5966 16.0883 56.8342 15.8507 56.8342 15.9695C56.8342 15.9695 56.7154 16.2072 56.3589 16.5636C56.0025 17.0389 55.4084 17.5142 54.8143 18.2271C53.3884 19.7718 51.3684 21.7917 48.8732 24.4058C43.7639 29.634 36.7534 36.6444 29.03 44.4866C21.3067 52.3289 14.2963 59.3393 9.18697 64.5675C6.69173 67.0627 4.67177 69.2015 3.24591 70.6273C2.53299 71.3403 2.05767 71.8156 1.58239 72.2908C1.22592 72.6473 1.1071 72.8849 0.988281 72.8849Z" fill="#263238"/>
<g opacity="0.3">
<path opacity="0.3" d="M36.1597 37.7138C33.6644 28.6834 36.0409 18.4647 42.1008 11.2166C48.1607 3.96853 57.9041 0.166251 67.291 1.11682C68.9545 10.1472 66.1028 19.2965 61.4688 27.1387C55.7653 36.4067 44.7148 40.3278 36.1597 37.7138Z" fill="black"/>
</g>
<path d="M19.8818 41.1597C14.7725 38.5456 11.089 33.1987 10.3761 27.4953C9.66319 21.7919 11.9207 15.732 16.1983 11.9297C20.9512 14.9002 24.0405 20.0095 25.5852 25.3565C27.4864 31.7728 24.6347 38.4268 19.8818 41.1597Z" fill="#F07654"/>
<g opacity="0.3">
<path opacity="0.3" d="M19.8818 41.1597C14.7725 38.5456 11.089 33.1987 10.3761 27.4953C9.66319 21.7919 11.9207 15.732 16.1983 11.9297C20.9512 14.9002 24.0405 20.0095 25.5852 25.3565C27.4864 31.7728 24.6347 38.4268 19.8818 41.1597Z" fill="black"/>
</g>
<path d="M21.781 51.3784C21.781 51.3784 21.6622 51.0219 21.4246 50.309C21.1869 49.596 20.9492 48.5266 20.7116 47.2196C20.2363 44.6055 19.6422 41.0409 19.1669 37.1198C18.6917 33.1987 18.3352 29.5152 18.2164 26.9011C17.9787 24.287 17.9788 22.6235 18.0976 22.6235C18.2164 22.6235 18.4541 24.1682 18.6917 26.7823C19.0482 29.5152 19.4046 33.0798 19.8799 36.8821C20.3552 40.8032 20.8304 44.3679 21.1869 46.9819C21.5434 49.7148 21.8998 51.2595 21.781 51.3784Z" fill="#263238"/>
</svg>
