<svg width="76" height="66" viewBox="0 0 76 66" fill="none" xmlns="http://www.w3.org/2000/svg">
<path d="M22.0291 32.8135C27.0196 36.9722 29.8713 43.745 29.1583 50.1614C28.4454 56.6966 24.2867 62.6376 18.4644 65.6082C14.1868 54.5578 12.4045 42.5568 22.0291 32.8135Z" fill="#F07654"/>
<path d="M38.5464 41.3687C39.0217 49.805 43.8933 57.8848 51.2602 62.1624C58.5083 66.4399 68.014 66.6776 75.6186 62.9941C67.3011 49.805 56.0131 38.8734 38.5464 41.3687Z" fill="#F07654"/>
<path d="M0.761377 0.137695C0.761377 0.137695 0.999019 0.375338 1.35548 0.731802C1.71195 1.20709 2.18723 1.80119 2.78133 2.51412C4.08837 4.0588 5.8707 6.3164 8.24712 9.04929C12.8812 14.5151 19.4163 22.0008 27.1397 29.7242C31.0608 33.6453 34.7443 37.21 38.3089 40.2993C41.8735 43.3887 45.2005 46.1215 48.0522 48.3791C50.904 50.5179 53.2804 52.1814 55.0627 53.132C56.7262 54.2014 57.7956 54.5579 57.7956 54.6767C57.7956 54.6767 57.558 54.5579 57.0827 54.439C56.6074 54.2014 55.8945 53.9638 54.9439 53.3697C53.1616 52.4191 50.6663 50.8744 47.8146 48.7356C44.9629 46.5968 41.6359 43.8639 37.9524 40.7746C34.3878 37.6852 30.5855 34.0018 26.6644 30.1995C18.941 22.4761 12.4059 14.8716 7.89065 9.40578C5.63305 6.67289 3.85074 4.29645 2.66252 2.75178C2.06842 2.03885 1.59314 1.32592 1.23667 0.85063C0.880209 0.375345 0.642556 0.137695 0.761377 0.137695Z" fill="#263238"/>
<path d="M21.0812 49.6861C20.9624 49.6861 21.3188 48.0226 21.6753 45.2897C22.0318 42.5568 22.2694 38.8734 21.7941 34.7147C21.3188 30.5559 20.3683 26.9913 19.5365 24.3772C18.7048 21.7632 17.873 20.2185 17.9919 20.2185C17.9919 20.2185 18.2295 20.575 18.586 21.2879C18.9424 22.0008 19.4177 22.9514 19.893 24.2584C20.8436 26.7537 21.9129 30.5559 22.3882 34.7147C22.8635 38.8734 22.5071 42.6757 22.0318 45.4086C21.7941 46.7156 21.5565 47.9038 21.3188 48.6167C21.3188 49.3297 21.2 49.8049 21.0812 49.6861Z" fill="#263238"/>
</svg>
