<svg width="374" height="309" viewBox="0 0 374 309" fill="none" xmlns="http://www.w3.org/2000/svg">
<path d="M210.822 153.651L202.505 152.344L150.936 135.709L120.756 127.035C113.745 124.659 104.596 123.708 94.7337 128.817C80.4751 136.066 41.1453 172.662 41.1453 172.662L69.4248 201.774L56.1168 260.828C71.0882 303.247 100.199 308.119 100.199 308.119C100.199 308.119 119.33 309.782 142.025 301.227C169.116 290.89 197.633 266.65 201.198 256.194C203.336 249.896 205.119 236.826 206.545 221.973L249.439 204.507L261.083 145.096L210.822 153.651Z" fill="#455A64"/>
<path d="M148.203 258.689C148.203 258.689 148.084 258.808 147.728 259.046C147.49 259.283 147.015 259.64 146.421 259.996C145.233 260.828 143.569 261.778 141.312 262.729C136.796 264.63 129.786 266.175 122.3 264.511C114.814 262.848 108.992 258.57 105.784 255.006C104.12 253.223 102.932 251.56 102.219 250.372C101.863 249.778 101.625 249.302 101.388 248.946C101.269 248.589 101.15 248.471 101.15 248.471C101.15 248.471 101.625 249.065 102.338 250.253C103.051 251.441 104.239 252.986 106.022 254.768C109.349 258.333 115.052 262.373 122.419 264.036C129.786 265.581 136.677 264.274 141.193 262.491C143.45 261.541 145.233 260.59 146.421 259.877C147.49 259.046 148.084 258.689 148.203 258.689Z" fill="#263238"/>
<path d="M131.804 138.085C131.804 138.085 131.804 138.204 131.923 138.323C131.923 138.561 132.042 138.798 132.161 139.155C132.399 139.868 132.636 140.937 132.874 142.363C133.468 145.215 134.3 149.373 134.537 154.483C134.656 157.097 134.537 159.949 134.062 162.919C133.468 165.89 132.399 169.098 130.735 172.068C128.953 175.039 126.457 177.772 123.725 180.267C120.873 182.762 117.784 185.02 114.694 187.515C108.04 192.506 101.505 197.14 95.6828 201.18C89.8605 205.338 84.7512 209.022 80.5925 212.111L80.4736 212.23L80.3548 212.111C76.6713 209.141 73.9385 206.526 72.1561 204.744C71.2056 203.794 70.6115 202.962 70.255 202.487C70.0174 202.249 69.8985 202.011 69.7797 201.892C69.6609 201.774 69.6609 201.655 69.6609 201.655C69.6609 201.655 69.8985 201.892 70.255 202.487C70.7303 202.962 71.3244 203.794 72.275 204.625C74.0573 206.408 76.909 209.022 80.5925 211.873H80.3548C84.3947 208.665 89.5041 204.982 95.3263 200.823C101.149 196.664 107.684 192.149 114.338 187.04C117.427 184.663 120.516 182.287 123.368 179.911C126.101 177.415 128.596 174.801 130.379 171.949C132.161 169.098 133.23 166.008 133.706 163.038C134.3 160.067 134.3 157.216 134.3 154.602C134.062 149.492 133.349 145.334 132.755 142.482C132.517 141.056 132.28 139.987 132.161 139.155C132.042 138.798 132.042 138.561 132.042 138.323C131.804 138.204 131.804 138.085 131.804 138.085Z" fill="#263238"/>
<path d="M355.668 164.939C367.787 154.602 371.827 135.947 365.173 121.569C359.47 120.975 353.885 120.381 348.182 119.787C356.856 115.272 361.965 104.934 360.539 95.3099C351.39 105.172 335.468 108.143 323.467 102.201C315.506 98.2804 309.09 90.9135 300.416 89.4876C292.455 88.0618 284.731 91.864 277.127 94.4781C269.522 97.211 260.373 98.6369 254.075 93.6464C249.085 89.6064 247.54 82.7148 247.897 76.2985C248.253 69.8821 250.035 63.7034 250.511 57.4059C251.224 44.9296 245.877 32.3346 236.727 23.8983C233.876 14.8679 226.984 7.02566 218.191 3.3422C207.616 -1.173 194.546 0.609313 185.516 7.61977C181.832 10.4715 178.624 14.1549 174.465 16.2937C169.712 18.6701 164.128 18.6701 159.018 19.8584C153.909 21.1654 148.443 24.4924 147.849 29.8393L145.829 40.6521C145.473 41.4838 145.116 42.1968 144.641 42.9097C140.245 50.6331 131.333 55.6236 129.313 64.2975C128.244 69.1692 129.551 74.3973 128.006 79.0314C125.867 85.2101 119.213 88.6559 116.124 94.3593C111.846 102.202 114.698 116.104 121.59 121.926C128.362 127.748 142.383 133.927 151.176 135.828C153.553 126.679 155.691 116.935 157.711 106.954C161.276 110.4 165.078 113.608 168.762 116.935C178.505 125.372 188.486 134.046 195.259 145.096C208.092 166.009 208.329 193.813 224.489 212.23C227.697 215.913 231.499 219.122 236.133 220.429C240.767 221.855 246.233 221.142 249.679 217.696C253.719 213.656 254.194 206.883 258.709 203.437C264.65 198.684 273.324 202.487 279.622 206.527C284.256 209.497 288.89 212.586 294.118 214.25C299.346 215.913 305.406 215.795 309.803 212.586C314.199 209.378 316.219 202.605 313.011 198.209C311.704 196.427 309.803 195.239 308.496 193.456C307.188 191.674 306.832 188.822 308.614 187.515C310.516 186.089 313.248 187.515 315.268 188.703C325.368 194.644 338.32 195.833 349.37 191.674C360.42 187.515 369.451 178.247 373.253 167.078C367.193 167.791 361.133 167.078 355.668 164.939Z" fill="#263238"/>
<path d="M345.094 71.6644C345.094 71.6644 345.688 72.0209 346.639 72.9714C347.589 73.922 349.015 75.3479 350.084 77.6055C350.679 78.6749 351.154 80.1007 351.391 81.6454C351.629 83.1901 351.51 84.9724 350.797 86.6359C350.084 88.2994 348.896 89.9629 347.114 91.0323C346.282 91.6264 345.213 91.9828 344.143 92.1017C343.074 92.2205 341.886 92.1017 340.816 91.6264C336.42 89.8441 334.162 84.7347 329.41 82.4771C324.775 79.9819 318.834 79.8631 313.131 81.1701C307.309 82.4771 301.843 85.5665 296.258 88.7747C290.674 91.864 284.614 95.3098 277.722 96.4981C274.276 97.0922 270.831 97.211 267.504 96.3792C265.84 96.0228 264.295 95.4287 262.751 94.5969C261.325 93.7652 259.899 92.8146 258.711 91.6264C256.334 89.3688 254.671 86.3982 253.602 83.5465C252.532 80.576 251.819 77.6055 251.463 74.6349C250.869 68.6939 251.344 62.9904 251.344 57.7623C251.463 52.5342 251.106 47.5437 249.918 43.2661C249.324 41.1273 248.492 39.1074 247.66 37.3251C246.829 35.5427 245.759 33.8792 244.809 32.4534C242.789 29.4828 240.65 27.3441 238.749 25.6806C236.848 24.0171 235.184 22.9477 234.115 22.2347C233.521 21.8783 233.164 21.6406 232.808 21.5218C232.57 21.403 232.333 21.2842 232.333 21.2842C232.333 21.2842 232.451 21.403 232.808 21.5218C233.164 21.6406 233.521 21.8783 234.115 22.2347C235.184 22.9477 236.967 23.8982 238.868 25.5617C240.769 27.2252 243.026 29.364 245.046 32.3346C246.116 33.7604 247.066 35.4239 248.017 37.2062C248.968 38.9885 249.799 41.0085 250.393 43.2661C251.7 47.6625 252.057 52.653 251.938 57.8811C251.938 63.2281 251.463 68.8127 252.057 74.7538C252.413 77.7243 253.007 80.6948 254.196 83.5465C255.265 86.3982 256.929 89.25 259.186 91.3887C260.374 92.4581 261.563 93.5275 262.988 94.2404C264.414 94.9534 265.959 95.5475 267.504 95.904C270.712 96.6169 274.158 96.6169 277.485 96.0228C284.257 94.8345 290.199 91.5076 295.783 88.4182C301.368 85.3288 306.952 82.1207 312.893 80.8136C315.864 80.2195 318.716 79.8631 321.567 80.1007C322.993 80.2195 324.419 80.4572 325.726 80.8136C327.033 81.1701 328.34 81.6454 329.528 82.3583C334.4 84.7347 336.658 89.8441 340.816 91.6264C342.836 92.4581 345.094 92.2205 346.757 91.1511C348.421 90.0817 349.609 88.537 350.322 86.8735C351.035 85.21 351.154 83.5465 350.916 82.1207C350.679 80.576 350.203 79.269 349.728 78.1996C348.659 75.942 347.233 74.5161 346.401 73.5655C345.926 73.0903 345.569 72.7338 345.332 72.4962C345.213 71.7832 344.975 71.6644 345.094 71.6644Z" fill="#263238"/>
<path d="M150.82 140.224C150.82 140.224 150.82 139.987 150.701 139.63C150.701 139.274 150.582 138.798 150.344 138.085C149.988 136.778 149.156 134.758 147.374 132.739C145.591 130.719 142.977 128.817 139.531 127.273C136.086 125.728 131.808 124.896 127.174 124.065C122.54 123.114 117.193 122.163 112.44 118.955C107.687 115.747 104.004 110.4 103.053 103.984C102.103 97.6862 104.123 90.557 108.994 85.5665C113.866 80.576 120.877 77.9619 126.58 73.5655C128.006 72.3773 129.313 71.1891 130.263 69.7633C131.214 68.3374 132.046 66.7927 132.521 65.0104C133.472 61.6834 133.353 58.1188 133.709 54.673C133.828 53.0095 134.066 51.2271 134.66 49.5636C135.135 47.9001 136.086 46.3555 137.155 45.1673C139.413 42.672 142.621 41.2462 145.71 40.4144C148.8 39.5827 151.77 38.9885 154.622 38.1568C157.473 37.325 160.206 36.2557 162.464 34.711C164.722 33.1663 166.623 31.1463 168.286 29.2452C169.95 27.2252 171.376 25.2053 172.683 23.1853C175.297 19.2642 177.554 15.4619 179.931 12.4914C182.307 9.52087 184.684 7.14444 186.822 5.59976C188.961 4.05508 190.981 3.22334 192.288 2.74805C193.595 2.27277 194.427 2.27277 194.427 2.27277C194.427 2.27277 193.714 2.39159 192.407 2.86687C191.1 3.34216 189.199 4.17391 187.06 5.71859C184.921 7.26326 182.545 9.63969 180.287 12.6102C177.911 15.5808 175.772 19.2642 173.158 23.3041C171.851 25.3241 170.425 27.3441 168.761 29.364C167.098 31.384 165.197 33.4039 162.82 34.9486C160.563 36.6121 157.711 37.6815 154.859 38.5133C152.008 39.345 148.918 39.9391 145.948 40.7709C142.977 41.6026 139.888 42.9096 137.749 45.4049C136.68 46.5931 135.848 48.019 135.373 49.6825C134.897 51.2271 134.66 52.8906 134.422 54.673C134.066 58.1188 134.185 61.6834 133.234 65.1292C132.759 66.9115 131.927 68.5751 130.858 70.0009C129.788 71.4268 128.481 72.7338 127.055 73.922C124.204 76.1796 120.995 77.9619 117.906 79.7442C114.817 81.5266 111.965 83.4277 109.589 85.8041C104.836 90.6758 102.816 97.6862 103.766 103.746C104.717 109.925 108.281 115.272 112.915 118.361C117.55 121.451 122.778 122.52 127.412 123.47C132.046 124.421 136.442 125.134 139.888 126.797C143.334 128.342 146.067 130.362 147.849 132.382C149.631 134.402 150.344 136.422 150.701 137.848C150.938 138.561 150.938 139.036 150.938 139.393C150.819 139.987 150.82 140.224 150.82 140.224Z" fill="#263238"/>
<path d="M245.639 33.5228C245.639 33.5228 245.282 33.5228 244.688 33.2851C244.094 33.0475 243.262 32.8098 242.312 32.3346C240.292 31.384 237.797 29.9581 235.183 27.7005C232.687 25.5617 230.786 23.1853 229.598 21.403C229.004 20.4524 228.529 19.7395 228.291 19.1454C228.053 18.5513 227.935 18.3137 227.935 18.3137C228.053 18.3137 228.647 19.383 229.954 21.1654C231.262 22.9477 233.163 25.2053 235.658 27.2252C238.153 29.364 240.648 30.9087 242.549 31.8593C244.451 32.9287 245.758 33.5228 245.639 33.5228Z" fill="#455A64"/>
<path d="M285.206 114.559C285.206 114.559 284.493 114.321 283.067 114.084C281.76 113.846 279.74 113.49 277.245 113.371C274.75 113.252 271.898 113.371 268.571 113.608C265.363 113.846 261.679 114.202 257.996 114.084C254.194 113.965 250.51 113.371 247.54 112.064C244.45 110.757 242.074 108.856 240.529 106.954C238.984 105.053 238.153 103.152 237.796 101.726C237.677 101.013 237.559 100.538 237.559 100.182C237.559 99.8251 237.559 99.5875 237.559 99.5875C237.677 99.5875 237.677 100.3 238.034 101.607C238.39 102.914 239.222 104.697 240.886 106.598C242.43 108.38 244.807 110.281 247.777 111.47C250.748 112.658 254.312 113.252 258.115 113.371C261.917 113.49 265.482 113.133 268.69 112.895C271.898 112.658 274.868 112.658 277.364 112.777C279.859 112.895 281.879 113.371 283.186 113.727C283.899 113.965 284.374 114.084 284.731 114.202C284.968 114.559 285.206 114.559 285.206 114.559Z" fill="#455A64"/>
<path d="M355.192 168.623C355.192 168.623 355.073 168.741 354.836 168.741C354.598 168.86 354.241 168.979 353.766 169.098C352.816 169.335 351.271 169.454 349.489 168.86C347.706 168.266 345.686 167.197 343.785 165.296C341.884 163.394 340.458 160.662 339.151 157.572C337.844 154.483 336.775 151.037 334.636 147.829C333.685 146.165 332.259 144.74 330.834 143.195C329.289 141.769 327.625 140.462 325.843 139.393C318.357 134.877 308.614 133.095 298.514 133.689C288.414 134.164 279.027 136.184 270.235 136.778C261.442 137.61 253.481 136.541 247.183 134.402C240.886 132.263 236.489 128.817 233.994 126.085C233.281 125.372 232.806 124.778 232.449 124.183C231.974 123.589 231.618 123.114 231.38 122.758C231.142 122.401 230.905 122.045 230.786 121.807C230.667 121.569 230.548 121.451 230.667 121.451C230.667 121.451 230.786 121.569 230.905 121.807C231.024 122.045 231.261 122.282 231.499 122.758C231.737 123.114 232.093 123.708 232.568 124.183C233.044 124.778 233.519 125.372 234.232 125.966C236.727 128.58 241.123 131.907 247.421 134.046C253.718 136.184 261.561 137.135 270.353 136.303C279.027 135.709 288.533 133.689 298.633 133.095C308.733 132.501 318.595 134.402 326.2 139.036C328.101 140.105 329.764 141.531 331.309 142.957C332.735 144.502 334.161 145.928 335.111 147.71C337.25 151.037 338.319 154.602 339.626 157.572C340.815 160.662 342.24 163.276 344.023 165.177C345.805 167.078 347.825 168.266 349.489 168.741C351.271 169.335 352.697 169.217 353.647 169.098C354.717 168.86 355.192 168.623 355.192 168.623Z" fill="#455A64"/>
<path d="M168.284 33.5229C163.65 33.404 159.729 36.8499 159.253 41.3651L149.629 141.413C147.965 155.433 166.383 185.614 181.473 187.278C196.682 188.941 198.227 181.574 200.128 168.266C203.455 146.047 204.524 137.61 204.524 137.729C204.524 137.729 224.13 137.016 231.378 112.539C234.942 100.3 237.081 79.8632 238.151 62.9905C239.22 47.9002 231.615 28.0571 216.525 27.7006L168.284 33.5229Z" fill="#FFBE9D"/>
<path d="M231.617 76.4174C231.498 78.0809 229.835 79.3879 228.052 79.2691C226.27 79.1503 224.963 77.6056 225.082 75.9421C225.201 74.2786 226.864 72.9716 228.646 73.0904C230.429 73.2092 231.855 74.7539 231.617 76.4174Z" fill="#263238"/>
<path d="M233.042 70.001C232.686 70.4763 230.072 68.8128 226.626 69.0504C223.18 69.2881 220.685 71.1892 220.328 70.8327C220.091 70.7139 220.447 69.8822 221.517 68.9316C222.586 68.0998 224.368 67.1493 226.507 67.0305C228.646 66.9116 230.547 67.5057 231.616 68.3375C232.805 69.0504 233.161 69.7633 233.042 70.001Z" fill="#263238"/>
<path d="M201.078 78.1997C200.722 78.5561 198.226 76.7738 194.78 76.655C191.335 76.5362 188.721 78.1997 188.364 77.8432C188.126 77.6056 188.602 76.8926 189.79 76.0609C190.859 75.2291 192.76 74.5162 195.018 74.635C197.157 74.7538 198.939 75.5856 200.009 76.4173C200.959 77.2491 201.316 78.0808 201.078 78.1997Z" fill="#263238"/>
<path d="M207.496 96.617C207.496 96.3794 209.754 96.3794 213.2 96.3794C214.15 96.3794 214.982 96.3794 215.22 95.7852C215.457 95.1911 215.22 94.1217 214.982 93.0524C214.388 90.7948 213.913 88.4183 213.2 86.0419C210.823 75.9421 209.279 67.7434 209.635 67.7434C209.992 67.6246 212.249 75.7045 214.626 85.8043C215.22 88.2995 215.695 90.6759 216.289 92.9335C216.527 94.0029 216.883 95.1911 216.289 96.4982C215.933 97.0923 215.22 97.5676 214.626 97.5676C214.032 97.6864 213.556 97.5676 213.081 97.5676C209.754 97.0923 207.496 96.8546 207.496 96.617Z" fill="#263238"/>
<path d="M204.523 137.848C204.523 137.848 187.531 136.66 172.203 124.54C172.203 124.54 178.382 142.838 203.81 143.789L204.523 137.848Z" fill="#EB996E"/>
<path d="M201.552 72.2586C200.958 73.0903 197.75 71.9021 193.591 71.4269C189.551 70.9516 185.987 71.308 185.63 70.3575C185.511 69.8822 186.224 69.1692 187.769 68.5751C189.314 67.981 191.571 67.6246 193.948 67.8622C196.443 68.2187 198.463 69.0504 199.77 70.001C201.196 70.9516 201.79 71.9021 201.552 72.2586Z" fill="#263238"/>
<path d="M232.447 65.2482C231.853 66.0799 229.476 65.367 226.506 65.4858C223.654 65.4858 221.159 66.3176 220.565 65.4858C220.327 65.1293 220.684 64.2976 221.634 63.4658C222.703 62.6341 224.367 61.9211 226.387 61.9211C228.407 61.9211 230.07 62.5153 231.14 63.2282C232.328 64.0599 232.684 64.8917 232.447 65.2482Z" fill="#263238"/>
<path d="M199.177 102.914C200.722 101.845 202.742 101.489 204.643 101.726C205.594 101.845 206.544 102.32 207.138 103.033C207.97 103.984 208.089 105.41 207.97 106.717C207.97 107.43 207.851 108.261 207.614 108.974C207.376 109.687 206.901 110.4 206.188 110.638C205.475 110.994 204.643 110.876 203.811 110.757C202.504 110.519 201.197 110.163 200.128 109.45C199.058 108.737 198.227 107.549 198.108 106.241C197.989 104.934 198.702 103.509 199.89 103.033" fill="#EB996E"/>
<path d="M208.562 110.638C208.325 110.757 207.849 109.925 207.018 108.974C206.186 107.905 204.879 106.598 203.215 105.647C201.552 104.697 199.77 104.222 198.344 104.103C197.037 103.865 196.086 103.865 196.086 103.627C196.086 103.39 196.918 102.914 198.344 102.796C199.77 102.677 202.027 102.914 204.047 104.103C206.067 105.291 207.493 106.954 208.087 108.38C208.681 109.568 208.681 110.519 208.562 110.638Z" fill="#263238"/>
<path d="M148.322 134.64C156.521 132.976 162.937 125.847 165.789 118.005C168.641 110.044 168.522 101.37 167.69 93.0523C167.571 91.9829 167.453 90.7947 166.502 90.0817C165.195 89.1312 163.413 89.9629 162.106 90.6759C156.877 93.884 151.887 97.3299 147.134 101.132C142.738 104.697 138.341 108.737 136.678 114.202C134.064 122.52 139.53 132.382 147.966 134.64" fill="#263238"/>
<path d="M338.08 132.739L299.107 70.1198L288.413 48.019C288.413 48.019 284.967 43.5038 281.402 39.5827C275.58 33.1663 269.758 38.1568 269.758 38.1568C269.758 38.1568 268.926 35.6616 265.837 35.7804C262.153 35.7804 260.49 38.5133 260.49 38.5133C260.49 38.5133 258.945 36.731 254.43 36.4933C253.479 36.4933 252.529 36.8498 251.578 37.4439C250.152 36.1369 247.419 34.3546 244.924 35.3051C242.904 36.018 230.784 45.2861 227.814 49.9201C226.388 52.1777 229.121 55.1483 232.804 53.8412C234.468 53.2471 236.013 52.7718 237.201 52.0589C239.221 50.8707 240.171 49.6825 240.171 49.6825C240.171 49.6825 237.082 55.0295 240.171 55.98C241.478 56.3365 244.092 56.0988 245.875 54.5542C247.063 53.6036 248.37 52.2966 249.677 51.1084C249.677 51.2272 249.558 51.2272 249.558 51.346C247.895 53.8412 252.291 57.5247 254.43 55.98C255.499 55.2671 256.45 54.4353 257.282 53.7224C262.272 57.2871 255.38 61.9211 252.41 61.6834C247.895 61.327 242.667 61.327 238.983 61.6834C236.488 61.9211 234.23 62.5152 232.804 63.941C231.141 65.6045 232.923 69.1692 235.181 69.5257C239.458 70.2386 244.924 71.1891 250.509 72.615C257.163 74.2785 274.629 79.9819 274.629 79.9819L276.293 81.4078L299.938 139.155L259.42 147.71L250.39 199.041L323.584 179.198C340.338 170.286 348.061 148.423 338.08 132.739Z" fill="#FFBE9D"/>
<path d="M274.869 79.6255C274.869 79.6255 274.513 79.6255 273.918 79.3879C273.205 79.1502 272.374 78.9126 271.304 78.675C268.928 77.962 265.72 77.0115 261.68 75.8232C259.66 75.2291 257.402 74.5162 255.026 73.8033C252.649 73.0904 250.035 72.2586 247.421 71.6645C244.688 70.9516 241.837 70.2386 238.866 69.8822C237.44 69.6445 235.777 69.7634 234.232 69.0504C233.876 68.8128 233.519 68.5751 233.163 68.2187C233.044 67.981 232.925 67.8622 232.806 67.6246L232.687 67.0305C232.569 66.1987 232.569 65.367 232.806 64.5352C233.044 63.7035 233.757 62.9905 234.47 62.6341C235.183 62.2776 236.014 62.04 236.727 61.6835C238.272 61.2082 239.936 61.0894 241.48 61.0894C244.57 61.0894 247.421 61.5647 250.273 61.4459C251.699 61.4459 253.006 61.327 254.313 61.0894C255.62 60.8518 256.808 60.4953 257.996 60.2576C260.373 59.6635 262.749 59.1883 264.888 59.4259C267.027 59.6635 268.928 60.2576 270.473 60.8518C272.017 61.4459 273.324 62.1588 274.394 62.7529C275.463 63.347 276.176 63.8223 276.77 64.1788C277.245 64.5352 277.602 64.654 277.602 64.7729C277.602 64.7729 277.245 64.654 276.77 64.2976C276.176 63.9411 275.344 63.5846 274.394 62.9905C273.324 62.3964 272.017 61.8023 270.473 61.2082C268.928 60.6141 267.027 60.02 265.007 59.9012C262.868 59.6635 260.61 60.1388 258.234 60.8518C257.046 61.2082 255.739 61.5647 254.432 61.8023C253.125 62.04 251.699 62.1588 250.273 62.2776C247.421 62.3964 244.451 62.04 241.48 61.9211C239.936 61.9211 238.391 62.04 236.965 62.5153C235.539 62.9905 233.876 63.4658 233.4 65.0105C233.163 65.7234 233.163 66.5552 233.282 67.2681L233.4 67.8622C233.4 67.981 233.519 68.0999 233.638 68.2187C233.876 68.4563 234.113 68.694 234.47 68.8128C235.777 69.5257 237.44 69.4069 238.985 69.6445C242.074 70.001 244.926 70.7139 247.659 71.4269C250.392 72.1398 252.887 72.9715 255.263 73.6845C257.64 74.3974 259.898 75.1103 261.917 75.8232C265.957 77.1303 269.166 78.0809 271.542 78.9126C272.611 79.2691 273.443 79.5067 274.156 79.7443C274.513 79.5067 274.869 79.6255 274.869 79.6255Z" fill="#EB996E"/>
<path d="M244.805 35.3051C244.924 35.4239 243.023 36.4933 240.171 38.6321C238.745 39.7015 237.201 41.0085 235.537 42.672C233.874 44.3355 232.091 46.2367 230.071 47.9002C229.002 48.7319 228.051 49.6825 227.933 50.8707C227.814 51.4648 227.814 52.0589 228.17 52.4154C228.408 52.8907 228.883 53.2471 229.358 53.366C230.428 53.7224 231.497 53.6036 232.448 53.4848C233.398 53.2471 234.349 53.0095 235.181 52.653C238.389 51.346 239.933 49.5637 240.052 49.6825C240.052 49.6825 239.696 50.1578 238.983 50.7519C238.27 51.346 237.082 52.2966 235.418 53.0095C234.587 53.366 233.636 53.7224 232.567 53.8412C231.497 54.0789 230.309 54.1977 229.121 53.8412C228.527 53.6036 227.933 53.2471 227.576 52.653C227.22 52.0589 227.101 51.346 227.338 50.6331C227.576 49.2072 228.764 48.2566 229.715 47.3061C231.735 45.5238 233.517 43.7414 235.181 42.0779C236.844 40.4144 238.508 39.1074 239.934 38.1568C241.359 37.0874 242.548 36.3745 243.498 35.8992C244.33 35.5428 244.805 35.3051 244.805 35.3051Z" fill="#EB996E"/>
<path d="M259.658 40.1768C259.658 40.1768 259.183 40.7709 258.232 41.8403C257.282 42.9097 255.975 44.3356 254.311 46.1179C252.648 47.9002 250.628 50.039 248.489 52.4154C247.42 53.6036 245.994 54.7918 244.33 55.5048C243.498 55.8612 242.548 56.2177 241.597 56.2177C240.647 56.2177 239.577 55.8612 238.864 55.1483C238.508 54.7918 238.27 54.1977 238.27 53.7225C238.27 53.2472 238.27 52.6531 238.389 52.1778C238.627 51.2272 239.102 50.3955 239.696 49.5637C241.835 47.3061 243.736 45.2861 245.518 43.2662C247.301 41.365 248.964 39.8204 250.39 38.5133C251.103 37.9192 251.697 37.2063 252.41 36.8498C253.123 36.4934 253.836 36.4934 254.311 36.3745C255.381 36.2557 255.975 36.3745 255.975 36.4934C255.975 36.4934 255.381 36.4934 254.43 36.6122C253.955 36.731 253.242 36.731 252.648 37.0875C252.054 37.4439 251.459 38.038 250.746 38.751C249.439 40.058 247.657 41.7215 245.994 43.6226C244.33 45.5238 242.31 47.6626 240.29 49.9202C239.815 50.6331 239.34 51.4648 239.102 52.2966C238.983 52.7719 238.983 53.1283 238.983 53.6036C239.102 54.0789 239.221 54.4354 239.458 54.7918C240.053 55.386 240.884 55.6236 241.716 55.7424C242.548 55.7424 243.38 55.5048 244.211 55.1483C245.756 54.4354 247.063 53.366 248.132 52.1778C250.39 49.8014 252.41 47.7814 254.074 45.9991C255.737 44.3356 257.044 42.9097 258.113 41.8403C258.589 41.365 258.945 41.0086 259.183 40.7709C259.539 40.2956 259.658 40.1768 259.658 40.1768Z" fill="#EB996E"/>
<path d="M277.837 45.9991C277.956 45.9991 277.837 46.3555 277.362 46.712C277.006 47.0684 276.174 47.3061 275.342 47.1873C274.51 47.0684 273.916 46.4743 273.679 46.1179C273.441 45.6426 273.441 45.2861 273.441 45.2861C273.56 45.2861 273.679 45.5238 274.035 45.8802C274.391 46.2367 274.867 46.5932 275.461 46.712C276.055 46.8308 276.649 46.712 277.124 46.4743C277.6 46.1179 277.837 45.8802 277.837 45.9991Z" fill="#EB996E"/>
<path d="M279.263 51.4648C279.144 51.5837 278.194 50.6331 277.481 49.3261C276.649 48.019 276.293 46.8308 276.53 46.712C276.649 46.5932 277.243 47.6625 278.075 48.9696C278.788 50.2766 279.382 51.346 279.263 51.4648Z" fill="#EB996E"/>
<path d="M281.879 72.615C281.761 72.615 281.285 71.7832 280.81 70.1197C280.216 68.5751 279.859 66.1986 279.859 63.5846C279.859 60.9705 280.453 58.7129 281.048 57.1682C281.642 55.6235 282.236 54.673 282.236 54.673C282.473 54.7918 280.572 58.4753 280.572 63.5846C280.335 68.8127 282.117 72.615 281.879 72.615Z" fill="#EB996E"/>
<path d="M313.839 154.958C313.72 154.958 313.601 153.651 313.007 151.75C312.651 150.799 312.175 149.611 311.581 148.542C310.868 147.354 310.155 146.165 309.086 144.977C308.017 143.789 306.947 142.838 305.878 142.007C304.808 141.175 303.739 140.581 302.789 140.224C301.006 139.393 299.699 139.036 299.699 138.917C299.699 138.917 300.056 138.917 300.65 139.036C301.244 139.155 302.076 139.393 303.026 139.749C303.977 140.106 305.046 140.7 306.234 141.531C307.304 142.363 308.492 143.314 309.561 144.502C310.631 145.69 311.462 146.997 312.056 148.185C312.651 149.374 313.126 150.562 313.363 151.631C313.601 152.582 313.72 153.414 313.839 154.008C313.958 154.721 313.958 154.958 313.839 154.958Z" fill="#EB996E"/>
<path d="M178.028 269.383C172.799 268.314 168.165 270.69 168.165 270.69C162.818 268.314 156.402 272.354 156.402 272.354C154.501 271.403 142.975 279.008 142.975 279.008L128.598 285.78L51.8393 228.865L73.5836 206.289L43.1654 174.564L7.51899 211.279C3.1226 215.914 0.865 222.092 0.389714 228.509C-0.560856 242.411 7.40016 255.481 19.8764 261.779L110.181 308.119C110.181 308.119 119.805 307.762 130.737 304.911C138.579 302.891 151.887 296.95 151.887 296.95C151.887 296.95 151.887 297.306 154.263 301.94C158.541 310.258 164.838 301.227 164.838 301.227C164.838 301.227 166.145 304.198 167.334 305.267C172.799 310.495 176.483 303.485 176.483 303.485C176.483 303.485 178.146 306.337 183.018 304.198C187.89 302.059 182.305 287.444 182.305 287.444C182.305 287.444 183.969 290.652 187.058 286.612C190.029 282.81 183.137 270.571 178.028 269.383Z" fill="#FFBE9D"/>
<path d="M167.094 271.403C167.094 271.403 167.451 271.165 168.045 271.047C168.758 270.928 169.708 270.809 170.897 271.165C172.085 271.522 173.392 272.116 174.699 273.185C175.293 273.661 176.006 274.255 176.6 274.849C177.194 275.562 177.669 276.394 178.145 277.225C179.808 280.552 180.996 283.76 181.709 286.018C182.066 287.206 182.303 288.157 182.422 288.751C182.541 289.464 182.66 289.82 182.541 289.82C182.422 289.82 182.066 288.394 181.234 286.137C180.402 283.879 179.214 280.79 177.551 277.463C177.194 276.631 176.719 275.918 176.125 275.205C175.531 274.611 174.936 274.017 174.342 273.542C173.154 272.591 171.847 271.878 170.778 271.522C168.639 270.809 167.213 271.522 167.094 271.403Z" fill="#EB996E"/>
<path d="M176.365 303.604C176.365 303.604 176.128 303.128 175.652 302.297C175.177 301.346 174.583 300.158 173.989 298.613C172.563 295.524 170.543 291.365 168.523 286.493C167.572 284.117 166.622 281.741 165.434 279.958C164.245 278.176 162.582 276.988 161.037 276.275C159.493 275.562 158.186 275.443 157.235 275.562C156.284 275.681 155.809 275.918 155.809 275.918C155.809 275.918 155.928 275.799 156.166 275.681C156.403 275.562 156.76 275.443 157.235 275.324C158.186 275.087 159.611 275.205 161.275 275.8C162.82 276.394 164.602 277.701 166.028 279.602C167.335 281.503 168.285 283.761 169.236 286.137C171.256 290.89 173.157 295.167 174.464 298.257C175.177 299.801 175.652 301.108 176.009 301.94C176.246 303.128 176.365 303.604 176.365 303.604Z" fill="#EB996E"/>
<path d="M141.192 285.305C141.192 285.305 141.667 285.068 142.38 284.592C143.331 284.117 144.4 283.642 145.826 282.929C146.539 282.572 147.371 282.216 148.202 281.859C149.153 281.503 150.222 281.265 151.292 281.384C152.361 281.503 153.549 281.859 154.5 282.572C155.45 283.285 156.163 284.355 156.876 285.424C157.47 286.493 158.065 287.563 158.54 288.632C159.015 289.702 159.609 290.652 160.085 291.603C161.154 293.504 162.104 295.049 162.817 296.593C163.53 298.019 164.006 299.207 164.362 300.039C164.719 300.871 164.837 301.346 164.719 301.346C164.6 301.346 164.006 299.445 162.461 296.712C161.748 295.286 160.679 293.742 159.609 291.84C159.134 290.89 158.54 289.939 158.065 288.87C157.589 287.801 156.995 286.731 156.401 285.781C155.807 284.711 155.094 283.761 154.262 283.166C153.431 282.454 152.361 282.097 151.292 281.978C150.341 281.859 149.272 281.978 148.44 282.335C147.608 282.691 146.777 283.048 146.064 283.404C144.638 283.998 143.45 284.474 142.499 284.83C141.667 285.186 141.192 285.305 141.192 285.305Z" fill="#EB996E"/>
<path d="M142.857 279.008C142.857 279.008 142.5 279.245 141.787 279.721C141.074 280.077 140.124 280.671 138.817 281.265C136.322 282.572 132.876 284.355 128.955 286.375C125.034 288.276 121.588 290.058 118.974 291.246C117.667 291.84 116.597 292.316 115.884 292.672C115.171 293.029 114.696 293.147 114.696 293.147C114.696 293.147 115.053 292.91 115.765 292.434C116.478 292.078 117.429 291.484 118.736 290.89C121.231 289.583 124.796 287.8 128.598 285.78C132.519 283.879 135.965 282.097 138.579 280.909C139.886 280.315 140.956 279.839 141.669 279.483C142.381 279.126 142.857 279.008 142.857 279.008Z" fill="#EB996E"/>
<path d="M52.7885 228.984C52.7885 229.222 48.7486 228.033 43.7581 228.746C38.7676 229.34 35.0842 231.36 34.9653 231.123C34.9653 231.004 35.7971 230.529 37.3418 229.816C38.8864 229.103 41.144 228.39 43.6393 228.152C46.1345 227.796 48.5109 228.033 50.1744 228.271C51.8379 228.509 52.9073 228.865 52.7885 228.984Z" fill="#EB996E"/>
<path d="M222.231 23.0666C203.22 22.829 184.208 24.8489 165.791 29.0077C161.513 29.9583 156.998 31.2653 154.028 34.5923C150.938 38.0381 150.463 43.0286 149.988 47.6626C149.512 53.3661 149.037 58.9507 148.562 64.6541C147.73 66.0799 146.779 67.387 145.829 68.694C141.314 74.5162 135.729 79.3879 131.57 85.5666C127.53 91.7453 125.273 99.8252 128.6 106.36C130.62 110.281 134.303 113.133 137.036 116.698C141.67 122.639 143.096 130.362 145.829 137.373C148.562 144.383 153.315 151.631 160.8 153.057C164.365 153.77 168.048 152.938 171.494 153.532C176.841 154.364 181.238 157.81 185.515 161.137C189.793 164.464 194.308 167.791 199.655 168.385C205.002 168.86 211.062 165.296 211.181 159.949C207.26 162.206 202.031 162.088 198.229 159.592C195.14 157.572 193.12 154.245 190.387 151.631C183.852 145.215 173.277 143.195 168.643 135.353C165.078 129.055 166.504 121.213 168.049 114.203C169.474 108.143 170.9 101.489 169.118 95.5476C169.237 94.597 169.356 93.6465 169.356 92.6959C169.356 86.3984 166.979 79.7444 169.831 74.1598C173.633 66.7929 184.802 65.9611 188.723 58.5942C190.981 54.3166 190.149 48.9697 192.644 44.8109C195.021 40.8898 199.655 39.1075 204.051 38.1569C208.448 37.2064 213.082 36.7311 217.003 34.4735C221.043 32.2159 223.894 27.2254 222.231 23.0666Z" fill="#263238"/>
<path d="M236.607 150.562C236.607 150.562 236.607 150.681 236.369 150.799C236.25 151.037 236.013 151.275 235.775 151.631C235.181 152.344 234.349 153.295 233.042 154.364C231.735 155.434 229.953 156.503 227.576 157.216C225.319 158.048 222.467 158.523 219.497 158.166C216.526 157.929 213.199 156.741 210.347 154.483C207.496 152.344 205 149.374 201.792 147.116C200.248 146.047 198.346 145.096 196.326 144.858C194.306 144.621 192.286 145.096 190.267 145.928C188.247 146.76 186.227 147.71 183.969 148.067C181.711 148.423 179.335 147.948 177.196 146.878C175.057 145.809 173.275 144.502 171.493 143.076C169.71 141.65 168.047 140.343 166.502 138.68C164.958 137.135 163.651 135.353 162.938 133.333C162.106 131.313 162.106 129.174 162.581 127.154C162.938 125.134 163.651 123.352 164.363 121.569C165.076 119.787 165.671 118.124 166.146 116.46C167.215 113.133 167.928 109.925 168.285 106.954C169.235 101.013 169.235 96.1416 168.997 92.8146C168.879 91.1511 168.76 89.8441 168.76 89.0124C168.76 88.6559 168.641 88.2994 168.641 88.0618C168.641 87.8241 168.641 87.7053 168.641 87.7053C168.641 87.7053 168.641 87.8241 168.76 88.0618C168.76 88.2994 168.879 88.6559 168.879 89.0124C168.997 89.8441 169.116 91.1511 169.235 92.8146C169.473 96.1416 169.592 101.132 168.641 107.073C168.166 110.044 167.572 113.252 166.502 116.698C166.027 118.361 165.433 120.144 164.72 121.926C164.007 123.708 163.294 125.491 162.938 127.392C162.581 129.293 162.581 131.313 163.294 133.214C164.007 135.115 165.314 136.897 166.74 138.323C168.166 139.868 169.948 141.294 171.73 142.601C173.513 143.908 175.295 145.334 177.315 146.284C179.335 147.235 181.593 147.829 183.731 147.472C185.87 147.116 187.89 146.165 189.91 145.334C191.93 144.502 194.069 143.908 196.208 144.264C198.346 144.502 200.248 145.453 201.911 146.641C205.119 149.017 207.614 151.869 210.466 154.008C213.199 156.265 216.288 157.453 219.259 157.691C222.229 158.048 224.962 157.572 227.22 156.859C229.478 156.146 231.26 155.077 232.567 154.126C235.537 152.225 236.488 150.562 236.607 150.562Z" fill="#263238"/>
<path d="M117.904 112.777C117.904 112.777 117.548 112.301 116.954 111.47C116.36 110.519 115.647 109.093 115.29 107.192C114.815 105.172 114.815 102.677 115.409 99.8251C116.003 96.9734 117.31 93.884 119.568 91.0323C121.706 88.1806 124.677 85.4477 128.123 82.9525C131.569 80.4572 135.371 78.0808 139.292 75.3479C143.094 72.615 147.015 69.4069 149.867 65.1293C151.293 62.9905 152.362 60.6141 153.075 58C153.788 55.5048 154.382 52.7719 154.976 50.1578C155.571 47.4249 156.283 44.8109 157.353 42.3156C158.422 39.8204 159.967 37.5627 161.987 35.8993C164.007 34.2358 166.383 32.9287 168.76 32.2158C171.136 31.384 173.631 31.0276 176.008 30.7899C180.761 30.4335 185.395 30.9088 189.553 31.2652C193.712 31.6217 197.752 31.8593 201.317 31.384C204.881 31.0276 207.971 29.9582 210.466 28.6512C212.961 27.3441 214.862 25.6806 216.051 24.1359C217.358 22.5913 217.952 21.1654 218.308 20.2148C218.665 19.2643 218.783 18.6702 218.783 18.6702C218.783 18.6702 218.665 19.2643 218.427 20.2148C218.071 21.2842 217.476 22.7101 216.169 24.2548C214.981 25.9183 213.08 27.5818 210.466 28.8888C207.971 30.3147 204.763 31.384 201.198 31.7405C197.633 32.2158 193.593 31.9782 189.435 31.6217C185.157 31.384 180.642 30.7899 176.008 31.2652C173.631 31.5029 171.255 31.8593 168.878 32.6911C166.502 33.404 164.244 34.5922 162.343 36.2557C160.442 37.9192 158.898 40.058 157.828 42.5532C156.759 44.9297 156.046 47.5437 155.452 50.2766C154.858 52.8907 154.263 55.6236 153.551 58.2377C152.719 60.8517 151.768 63.347 150.224 65.4858C147.372 69.8821 143.332 73.0903 139.53 75.942C135.609 78.6749 131.806 81.0513 128.36 83.5466C124.915 86.0418 122.063 88.6559 119.805 91.5076C117.548 94.3593 116.36 97.3299 115.647 100.182C115.052 102.914 115.052 105.41 115.409 107.43C116.241 111.113 118.023 112.777 117.904 112.777Z" fill="#455A64"/>
<path d="M121.35 119.074C121.35 119.074 119.924 118.005 117.667 115.628C116.597 114.44 115.29 112.777 114.458 110.638C114.102 109.568 113.746 108.261 113.864 106.954C113.983 105.647 114.577 104.221 115.409 103.033C117.31 100.657 120.518 99.3498 123.845 98.7557C125.509 98.3993 127.291 98.1616 129.073 97.6863C130.856 97.211 132.638 96.6169 134.183 95.5475C135.728 94.4782 136.916 92.9335 137.866 91.1512C138.817 89.3688 139.411 87.4677 140.124 85.4477C140.837 83.4278 141.55 81.4078 142.5 79.5067C143.451 77.6055 144.996 75.8232 147.016 74.5162C148.917 73.328 151.055 72.615 153.194 72.1397C155.333 71.5456 157.353 71.1892 159.373 70.4762C163.294 69.288 166.502 66.5552 168.76 63.5846C171.136 60.6141 172.919 57.4059 174.582 54.4354C176.246 51.4648 178.028 48.732 179.929 46.4744C181.83 44.2167 183.969 42.5533 185.989 41.4839C188.009 40.4145 190.029 39.9392 191.692 39.8204C193.356 39.7015 194.663 39.9392 195.495 40.1768C196.326 40.4145 196.683 40.6521 196.683 40.6521C196.683 40.6521 196.208 40.5333 195.376 40.2956C194.544 40.058 193.237 39.9392 191.692 40.058C190.148 40.2956 188.128 40.7709 186.108 41.8403C184.088 42.9097 182.068 44.5732 180.167 46.8308C178.266 49.0884 176.602 51.7025 174.939 54.673C173.275 57.6436 171.493 60.8517 169.116 63.9411C167.928 65.4858 166.502 66.9116 164.958 68.2187C163.413 69.5257 161.512 70.4763 159.492 71.1892C157.472 71.9021 155.333 72.3774 153.313 72.8527C151.293 73.4468 149.154 74.0409 147.253 75.2291C145.352 76.4173 144.045 78.0808 142.976 79.9819C142.025 81.8831 141.312 83.9031 140.599 85.8042C139.886 87.8242 139.292 89.7253 138.223 91.5076C137.272 93.2899 135.965 94.9534 134.302 96.0228C132.638 97.0922 130.856 97.8051 129.073 98.1616C127.291 98.6369 125.509 98.8745 123.845 99.231C120.518 99.9439 117.429 101.132 115.647 103.39C114.815 104.459 114.221 105.766 114.102 107.073C113.983 108.38 114.221 109.568 114.577 110.638C115.409 112.777 116.597 114.44 117.667 115.628C118.736 116.817 119.568 117.767 120.162 118.361C120.4 118.599 120.637 118.837 120.875 119.074C121.231 118.955 121.35 119.074 121.35 119.074Z" fill="#455A64"/>
<path d="M267.619 42.3156C267.619 42.3156 267.381 42.672 267.025 43.2662C266.549 43.8603 265.955 44.692 265.123 45.6426C263.46 47.5437 261.202 50.1578 258.469 52.8907C257.162 54.1977 255.855 55.7424 254.073 56.2177C253.241 56.4553 252.291 56.4553 251.578 56.2177C250.865 55.8612 250.271 55.2671 249.914 54.7918C249.32 53.6036 249.439 52.4154 249.439 51.8213C249.558 51.1084 249.677 50.7519 249.677 50.7519C249.677 50.7519 249.677 51.1084 249.677 51.8213C249.677 52.5342 249.677 53.6036 250.271 54.5542C250.627 55.0295 251.103 55.5048 251.697 55.7424C252.291 55.9801 253.123 55.9801 253.835 55.7424C255.38 55.2671 256.568 53.8413 257.994 52.5342C260.727 49.8013 263.104 47.1873 264.767 45.4049C266.431 43.385 267.5 42.1968 267.619 42.3156Z" fill="#EB996E"/>
<path d="M276.649 42.3156C276.649 42.3156 276.411 42.6721 275.936 43.2662C275.461 43.8603 274.748 44.692 273.797 45.6426C272.847 46.712 271.777 47.7814 270.589 49.0884C269.995 49.6825 269.401 50.3955 268.688 51.1084C267.975 51.8213 267.262 52.5343 266.43 53.1284C265.599 53.7225 264.529 54.1978 263.579 54.3166C262.509 54.4354 261.44 53.9601 260.846 53.1284C260.608 52.7719 260.371 52.1778 260.371 51.7025C260.371 51.2272 260.608 50.7519 260.727 50.3955C261.202 49.6825 261.559 49.0884 262.034 48.6132C262.866 47.5438 263.46 46.712 263.935 46.1179C264.411 45.5238 264.648 45.1673 264.648 45.2861C264.648 45.2861 264.529 45.6426 264.054 46.3555C263.698 46.9497 263.103 47.9002 262.272 48.9696C261.915 49.5637 261.44 50.1578 261.084 50.7519C260.727 51.346 260.608 52.1778 261.084 52.7719C261.559 53.366 262.391 53.7225 263.222 53.7225C264.054 53.6037 265.005 53.2472 265.836 52.6531C266.668 52.059 267.381 51.346 267.975 50.6331C268.688 49.9202 269.282 49.3261 269.876 48.6132C271.065 47.4249 272.134 46.2367 273.203 45.2861C274.154 44.3356 274.867 43.6226 275.461 43.0285C276.293 42.5533 276.649 42.3156 276.649 42.3156Z" fill="#EB996E"/>
</svg>
