<svg width="120" height="80" viewBox="0 0 120 80" fill="none" xmlns="http://www.w3.org/2000/svg">
<path d="M116.848 47.9538C111.263 46.6637 105.791 47.6975 100.241 48.6544C94.4387 49.6711 88.8103 51.3713 83.3123 53.4389C78.0835 55.3955 73.1673 57.7194 68.4684 60.6841C68.2946 60.7952 68.1296 60.8977 67.9559 61.0088C69.3369 58.9839 70.4834 56.8565 71.2304 54.4557C72.0121 51.884 69.9102 49.8505 67.4695 49.6113C64.2992 49.2952 61.3634 49.9616 58.6361 51.1748C60.6425 48.5604 62.2581 45.6812 63.118 42.426C63.7433 40.0337 61.9628 38.1113 59.6089 37.9063C57.3333 37.7012 55.1097 38.0943 52.9557 38.8376C54.1282 37.1715 55.0489 35.3517 55.5787 33.3268C56.1346 31.1481 54.5278 29.2258 52.2955 29.0976C47.6834 28.8669 43.2971 30.7893 39.2583 33.4293C40.8043 31.2165 42.2635 28.9353 43.5751 26.5601C45.3209 23.3733 41.7945 19.7251 38.5026 21.5876C37.5124 22.143 36.557 22.7496 35.6276 23.3989C35.7058 23.228 35.784 23.0657 35.8535 22.8863C37.1998 19.8532 33.3086 15.9999 30.7463 19.0245C30.5031 19.3064 30.2772 19.5798 30.0427 19.8618C30.3467 18.5716 30.5204 17.2815 30.5118 15.9572C30.5031 14.351 28.4793 12.9242 26.994 13.9751C25.9344 14.7269 24.9181 15.53 23.954 16.3673C24.562 14.4023 24.8921 12.3945 24.7271 10.3696C24.5881 8.59246 22.7293 7.94313 21.3657 9.00257C17.3355 12.1296 14.2434 16.5724 11.6724 20.9895C12.0372 17.76 12.5497 14.6159 13.4182 11.4717C14.3216 8.1909 15.3204 4.96134 15.746 1.59508C15.9024 0.356226 14.2434 -0.369998 13.2706 0.193894C8.1547 3.24404 5.69664 9.61772 3.80315 14.9149C2.78692 17.7514 2.08338 20.6649 1.34509 23.5698C0.181206 28.1407 0.902121 32.9594 0.0335489 37.5816C-0.357309 39.6321 2.78692 40.5122 3.23858 38.4531C3.99424 34.916 4.01161 31.3276 4.25481 27.7392C4.47195 24.595 5.41001 21.4509 6.31333 18.4435C7.51196 14.4621 9.09276 9.61772 11.8374 6.02932C11.4118 7.90041 10.8473 9.74588 10.2914 11.617C9.38807 14.65 8.93642 17.76 8.50213 20.8785C8.10259 23.7748 7.74647 26.6712 7.29481 29.559C5.87035 32.968 4.8715 36.582 4.95835 40.1362C4.9931 41.3751 6.12224 42.0159 7.11241 41.8706C6.53047 43.5623 6.04407 45.2625 5.67927 46.9798C5.5403 47.6291 5.70533 48.2358 6.01801 48.7142C4.94967 50.5853 3.97687 52.482 3.14304 54.4471C2.22235 56.6172 3.90738 57.9842 5.77481 58.1808C5.4795 58.719 5.18418 59.2658 4.88887 59.8041C3.4731 62.4783 5.41001 65.0073 7.80727 65.2636C7.58144 65.7677 7.3643 66.2717 7.15584 66.7844C5.59241 70.6205 10.9515 72.5771 13.5398 70.4326C14.5995 69.5611 15.5897 68.6298 16.5364 67.6558C16.8925 70.0481 19.7936 71.9619 22.2343 70.4668C29.5129 66.0069 35.011 59.3427 41.89 54.3702C45.1298 52.0292 48.9689 48.4664 53.1033 46.4757C50.5063 49.9274 46.867 52.8067 43.7054 55.5322C38.2942 60.2056 32.6745 65.1525 30.338 72.0645C29.3044 75.1317 32.4487 77.2676 35.1847 76.8148C41.9422 75.7212 47.1189 70.3471 51.8005 65.8787C54.1282 63.6573 56.621 61.1284 59.4613 59.3598C59.0965 59.7955 58.723 60.2398 58.3582 60.6756C55.8133 63.6915 53.5637 66.716 52.2087 70.424C51.123 73.3802 54.3888 75.9604 57.1682 75.2769C61.9628 74.115 66.2188 71.5775 70.3532 69.0058C74.6873 66.3145 78.9347 63.8368 83.7118 61.94C88.9406 59.8639 94.3431 58.2235 99.8499 57.0273C103.368 56.2584 107.363 55.5322 111.115 55.7372C111.758 56.1473 112.566 56.4122 113.53 56.3951C114.251 56.3951 114.98 56.3866 115.693 56.3695C120.574 56.4036 121.773 49.0901 116.848 47.9538ZM43.08 39.3246C40.4916 41.6741 37.6688 43.7759 35.1152 46.1682C33.3172 47.8684 31.4672 49.5601 29.6345 51.2603C30.5378 50.1752 31.4672 49.1158 32.4574 48.0991C35.1239 45.3565 38.216 42.8446 41.2994 40.5805C41.8814 40.1619 42.4633 39.7347 43.08 39.3246ZM17.4224 31.4301C19.1421 28.6533 21.1051 25.8937 23.3287 23.3989C23.1115 23.7748 22.8944 24.1507 22.6946 24.5096C20.8793 27.611 18.7513 30.5159 16.6233 33.4037C16.8752 32.7458 17.1444 32.088 17.4224 31.4301ZM20.0281 15.6924C18.9337 19.0501 16.936 22.3053 15.5462 25.2956C15.2509 25.9193 14.973 26.5516 14.695 27.1838C14.4345 27.5683 14.1826 27.9527 13.9307 28.3372C12.4194 30.6526 10.9949 33.1047 9.7355 35.6251C9.96133 34.4631 10.1611 33.3012 10.3435 32.1392C11.3163 29.6444 12.567 27.2436 13.783 25.0308C15.5376 21.8268 17.57 18.546 20.0281 15.6924Z" fill="#F9C8BB"/>
<path d="M29.7511 49.0219C30.1593 49.0219 30.3417 49.4832 30.0464 49.7737L22.1771 56.5917C21.9426 58.6166 21.7689 60.7525 21.6473 62.9483C21.1088 74.6191 15.411 80.2239 10.0084 79.9932C6.89895 79.8736 4.90123 77.6778 5.07494 74.5081C5.54397 64.9646 12.7705 62.8885 18.3554 57.8049L18.8244 54.4557C17.122 57.1727 15.2372 59.3684 13.6564 59.3684C6.49072 59.3684 10.4253 48.1589 11.7195 42.4431C11.8411 42.0416 12.1886 41.7511 12.5968 41.6913C13.1266 41.6315 13.7172 41.6315 14.36 41.6913C15.1243 41.7511 15.6542 42.5029 15.4718 43.2548C13.8302 49.7225 11.9454 56.7198 14.6466 56.7198C16.0016 56.7198 17.6432 54.2934 19.1111 51.6363L20.3444 42.5627C20.4052 41.9818 20.9351 41.5802 21.517 41.5802L22.872 41.64C23.5147 41.6998 23.9838 42.221 23.9316 42.8532C23.6971 45.6812 22.9936 49.7908 22.403 54.5241L29.3342 49.0902C29.4558 48.9706 29.5687 48.9193 29.6903 48.9193L29.7511 49.0219ZM18.0601 60.3424C14.8898 62.8287 11.0073 65.0244 9.36569 70.8598C8.48843 73.8673 8.77506 78.3699 10.3037 78.4297C12.7705 78.5493 16.5314 73.4059 17.4087 64.7937L18.0601 60.3424Z" fill="#0C1B39"/>
<path d="M49.1286 48.962C49.4847 48.962 49.7193 49.3123 49.5369 49.6541C47.4262 54.1054 43.7174 59.4196 41.3115 59.4196C38.6102 59.4196 37.2031 57.6254 37.2031 55.3784L37.3769 53.0032C36.2651 55.6006 34.2066 59.3598 31.0884 59.3598C31.0884 59.3598 27.6836 59.5905 27.6836 53.7551C27.6836 47.9197 31.6182 41.6229 35.4921 41.6229C37.1945 41.5631 38.6015 42.4858 39.4267 43.3573C39.4875 43.0668 39.5483 42.7763 39.6612 42.4943C39.7828 42.0928 40.1302 41.8023 40.5385 41.7425C41.0683 41.6827 41.6502 41.6827 42.3017 41.7425C43.066 41.8023 43.5958 42.5542 43.4221 43.306C41.7805 49.7737 40.4255 56.7113 42.3017 56.7113C44.0649 56.7113 46.8877 52.5504 48.6422 49.0816C48.703 48.9108 48.8767 48.7911 49.0505 48.7911L49.1286 48.962ZM37.6722 50.5768C37.9675 48.6117 38.3757 46.8773 38.9663 44.861C38.4973 44.2287 37.6722 43.4769 36.6125 43.4769C33.7897 43.4769 30.0374 58.0954 32.0873 58.0954C33.6767 58.0954 35.7266 53.9943 37.7243 50.5853H37.6722V50.5768Z" fill="#0C1B39"/>
<path d="M66.9256 48.7911C67.2817 48.7911 67.5162 49.1414 67.3946 49.4233C65.5706 53.5842 63.1039 59.1889 58.2312 59.1889C54.9393 59.1889 52.655 56.0704 52.1772 52.0804C51.769 54.8572 51.5866 57.1042 51.7082 58.2662C51.769 58.7275 51.3521 59.1291 50.8831 59.1291L49.2415 59.0693C49.007 59.0693 48.7724 58.9582 48.6508 58.719C45.7151 54.0968 51.7082 22.553 63.4513 22.553C63.4513 22.553 67.6204 22.442 67.6204 26.5942C67.6204 37.0519 56.5809 41.563 54.4008 41.7339C53.758 44.2201 53.2282 46.7064 52.8113 49.0132C55.1043 47.3386 58.2746 45.5444 60.2723 42.1952C60.6284 41.6143 61.3928 41.5032 61.9747 41.845C62.6175 42.2465 61.6794 42.9386 61.2712 43.5195C59.8033 45.6555 57.4495 48.5433 54.8698 50.1068C55.9295 53.3449 57.2758 55.9422 59.2735 55.9422C62.9128 55.9422 65.7965 51.7216 66.6737 49.1243C66.7345 48.9534 66.9082 48.8338 67.0819 48.8338L66.9256 48.7911ZM63.8074 24.988C60.1073 25.0478 56.8762 32.498 54.7048 40.4181C57.5276 39.8372 65.9267 34.5229 65.8659 28.1663C65.8659 25.6801 64.4588 25.0393 63.8074 24.988Z" fill="#0C1B39"/>
<path d="M82.2563 49.5429C82.6646 49.6027 82.847 50.0641 82.5516 50.3546C79.2598 54.054 76.2111 59.8297 71.9203 59.8297C68.0986 59.8297 65.3974 56.1302 65.8664 51.6276C66.3354 47.5864 70.6262 41.5715 73.6227 41.5715C75.9158 41.5715 77.7919 42.6139 77.7919 44.4593C77.7919 50.7561 72.2678 51.1577 70.3916 51.1064C69.6881 54.5154 70.3308 57.5741 72.3894 57.5741C77.0275 57.5741 78.9644 52.6614 81.9089 49.7736C82.0305 49.654 82.2042 49.6027 82.3779 49.6027L82.2563 49.5429ZM74.031 44.2287C72.4415 45.7922 71.3297 47.9281 70.7391 50.0043C73.9702 49.8847 75.9679 49.0217 75.9679 44.8609C75.9679 43.2974 74.8474 43.5879 73.9702 44.1689L74.031 44.2287Z" fill="#0C1B39"/>
<path d="M97.4048 49.5429C97.813 49.6027 97.9954 50.0641 97.7001 50.3546C94.4082 54.054 91.3595 59.8297 87.0688 59.8297C83.2471 59.8297 80.5458 56.1302 81.0148 51.6276C81.4838 47.5864 85.7746 41.5715 88.7712 41.5715C91.0642 41.5715 92.9403 42.6139 92.9403 44.4593C92.9403 50.7561 87.4162 51.1577 85.5401 51.1064C84.8365 54.5154 85.4793 57.5741 87.5378 57.5741C92.176 57.5741 94.1129 52.6614 97.0574 49.7736C97.179 49.654 97.3527 49.6027 97.5264 49.6027L97.4048 49.5429ZM89.1794 44.2287C87.5899 45.7922 86.4781 47.9281 85.8875 50.0043C89.1186 49.8847 91.1163 49.0217 91.1163 44.8609C91.1163 43.2974 90.0045 43.5879 89.1186 44.1689L89.1794 44.2287Z" fill="#0C1B39"/>
<path d="M115.028 48.8509C115.384 48.8509 115.619 49.2012 115.436 49.543C113.326 53.9943 110.624 59.3086 107.741 59.3086C105.039 59.3086 103.632 57.5144 103.632 55.2673C103.632 52.952 107.037 44.2287 106.742 44.2287C103.919 44.2287 100.34 55.0879 99.3415 58.0953L99.2807 58.4969C99.2199 58.8985 98.8725 59.189 98.4556 59.189H97.5175C96.2841 59.189 95.3461 58.1466 95.5198 56.9334L96.4578 49.7651C96.7532 47.3985 97.2222 45.2625 98.1602 42.4858C98.2732 42.0842 98.6293 41.7937 99.0375 41.7339C99.5673 41.6741 100.149 41.6741 100.801 41.7339C101.565 41.7937 102.095 42.5456 101.921 43.2975C101.391 45.4932 100.922 47.7488 100.566 49.7651L100.445 50.7477C102.034 46.527 104.735 41.8536 107.966 42.0842C111.371 42.0842 109.843 46.0742 109.843 46.0742C108.201 52.5419 106.021 56.7027 108.783 56.7027C110.546 56.7027 112.778 52.5419 114.542 49.0731C114.602 48.9022 114.776 48.7826 114.95 48.7826L115.028 48.8509Z" fill="#0C1B39"/>
</svg>
