<svg width="29" height="28" viewBox="0 0 29 28" fill="none" xmlns="http://www.w3.org/2000/svg">
<path d="M3.97164 22.3773C3.25872 15.961 5.87272 9.30698 10.7444 5.14822C15.6161 0.98947 22.6265 -0.436403 28.8052 1.34592C24.29 12.2775 17.2796 22.0209 3.97164 22.3773Z" fill="#F07654"/>
<path d="M0.882253 27.4866C0.763432 27.4866 1.35755 26.1796 2.30812 24.2784C3.3775 22.3773 5.04096 19.882 7.17974 17.5056C9.43733 15.0104 11.695 13.1092 13.4773 11.921C15.2596 10.614 16.4478 10.0199 16.4478 10.1387C16.4478 10.2575 15.3784 10.9705 13.7149 12.2775C12.0514 13.5845 9.79382 15.6045 7.65505 17.9809C5.51628 20.3573 3.73395 22.8526 2.66456 24.6349C1.59518 26.4172 0.882253 27.4866 0.882253 27.4866Z" fill="#263238"/>
</svg>
