<svg width="34" height="14" viewBox="0 0 34 14" fill="none" xmlns="http://www.w3.org/2000/svg">
<path d="M8.69873 9.02755C10.7187 4.63117 14.9963 1.30416 19.868 0.472408C24.6208 -0.35934 29.8489 1.30416 33.1759 4.74998C30.9183 8.90872 26.7596 11.6416 22.2444 13.1863C17.0163 15.0874 11.3128 12.9487 8.69873 9.02755Z" fill="#F07654"/>
<path d="M0.262207 11.0474C0.262207 10.9286 1.5692 10.4533 3.70799 9.97805C5.84678 9.50277 8.81736 8.90867 12.1444 8.31457C15.4714 7.72047 18.4418 7.36401 20.6995 7.12637C22.8382 6.88873 24.2641 6.76989 24.2641 6.88871C24.2641 7.00753 22.9571 7.24518 20.8183 7.60164C18.4419 7.9581 15.5901 8.4334 12.3819 9.0275C9.05494 9.6216 6.08443 10.0969 3.94565 10.4533C1.68804 10.8098 0.381029 11.0474 0.262207 11.0474Z" fill="#263238"/>
</svg>
