<svg width="55" height="23" viewBox="0 0 55 23" fill="none" xmlns="http://www.w3.org/2000/svg">
<path d="M8.44531 17.8734C12.0099 9.31829 20.2086 2.90192 29.3578 1.23842C38.507 -0.42508 48.3692 2.7831 54.7856 9.55593C41.24 20.0122 25.4367 27.1415 8.44531 17.8734Z" fill="#F07654"/>
<g opacity="0.3">
<path opacity="0.3" d="M8.44531 17.8734C12.0099 9.31829 20.2086 2.90192 29.3578 1.23842C38.507 -0.42508 48.3692 2.7831 54.7856 9.55593C41.24 20.0122 25.4367 27.1415 8.44531 17.8734Z" fill="black"/>
</g>
<path d="M0.839844 22.151C0.839844 22.151 1.19634 21.7945 1.90926 21.3192C2.62219 20.8439 3.69155 20.131 4.99858 19.2993C7.73146 17.7546 11.5338 15.8534 16.049 14.3087C20.5641 12.7641 24.8417 12.0512 27.931 11.6947C29.4757 11.5759 30.7828 11.457 31.6145 11.457C32.4463 11.457 32.9215 11.457 32.9215 11.457C32.9215 11.5759 31.0204 11.6947 27.931 12.17C24.8417 12.6453 20.683 13.477 16.1678 14.9028C11.6526 16.3287 7.85029 18.2299 5.11741 19.6557C2.50334 21.2004 0.839844 22.151 0.839844 22.151Z" fill="#263238"/>
</svg>
